<svg fill="none" height="440" viewBox="0 0 778 440" width="778" xmlns="http://www.w3.org/2000/svg" xmlns:xlink="http://www.w3.org/1999/xlink"><linearGradient id="a"><stop offset="0" stop-color="#89daf4"/><stop offset="1" stop-color="#008dd7"/></linearGradient><linearGradient id="b" gradientUnits="userSpaceOnUse" x1="697.685" x2="686.698" xlink:href="#a" y1="123.558" y2="150.319"/><linearGradient id="c"><stop offset="0" stop-color="#144188"/><stop offset=".9975" stop-color="#1a7cde"/></linearGradient><linearGradient id="d" gradientUnits="userSpaceOnUse" x1="690.921" x2="727.434" xlink:href="#c" y1="289.941" y2="289.941"/><linearGradient id="e"><stop offset="0" stop-color="#144188"/><stop offset=".998" stop-color="#102465"/></linearGradient><linearGradient id="f" gradientUnits="userSpaceOnUse" x1="654.248" x2="690.921" xlink:href="#e" y1="289.941" y2="289.941"/><linearGradient id="g"><stop offset="0" stop-color="#009ae4" stop-opacity="0"/><stop offset=".2345" stop-color="#0094e0" stop-opacity=".3832"/><stop offset=".6119" stop-color="#008fdd"/></linearGradient><linearGradient id="h" gradientUnits="userSpaceOnUse" x1="693.959" x2="681.637" xlink:href="#g" y1="196.323" y2="566.466"/><linearGradient id="i"><stop offset="0" stop-color="#f9fcff" stop-opacity="0"/><stop offset="1" stop-color="#f9fcff"/></linearGradient><linearGradient id="j" gradientUnits="userSpaceOnUse" x1="690.1" x2="689.172" xlink:href="#i" y1="36.4275" y2="135.706"/><linearGradient id="k" gradientUnits="userSpaceOnUse" x1="756.437" x2="750.229" xlink:href="#a" y1="160.174" y2="175.295"/><linearGradient id="l" gradientUnits="userSpaceOnUse" x1="752.614" x2="773.247" xlink:href="#c" y1="304.622" y2="304.622"/><linearGradient id="m" gradientUnits="userSpaceOnUse" x1="731.893" x2="752.614" xlink:href="#e" y1="304.622" y2="304.622"/><linearGradient id="n" gradientUnits="userSpaceOnUse" x1="750.996" x2="755.356" xlink:href="#g" y1="188.276" y2="510.409"/><linearGradient id="o" gradientUnits="userSpaceOnUse" x1="751.259" x2="750.546" xlink:href="#i" y1="90.056" y2="166.292"/><linearGradient id="p" gradientUnits="userSpaceOnUse" x1="738.222" x2="733.122" xlink:href="#a" y1="221.571" y2="233.994"/><linearGradient id="q" gradientUnits="userSpaceOnUse" x1="735.082" x2="752.032" xlink:href="#c" y1="334.479" y2="334.479"/><linearGradient id="r" gradientUnits="userSpaceOnUse" x1="718.058" x2="735.082" xlink:href="#e" y1="334.479" y2="334.479"/><linearGradient id="s" gradientUnits="userSpaceOnUse" x1="736.349" x2="730.435" xlink:href="#g" y1="265.15" y2="579.596"/><linearGradient id="t" gradientUnits="userSpaceOnUse" x1="43.9229" x2="32.937" xlink:href="#a" y1="281.071" y2="307.832"/><linearGradient id="u" gradientUnits="userSpaceOnUse" x1="37.1592" x2="73.6725" xlink:href="#c" y1="368.698" y2="368.698"/><linearGradient id="v" gradientUnits="userSpaceOnUse" x1=".486816" x2="37.1593" xlink:href="#e" y1="368.698" y2="368.698"/><linearGradient id="w" gradientUnits="userSpaceOnUse" x1="163.766" x2="158.988" xlink:href="#a" y1="132.979" y2="144.617"/><linearGradient id="x" gradientUnits="userSpaceOnUse" x1="160.825" x2="176.704" xlink:href="#c" y1="289.94" y2="289.94"/><linearGradient id="y" gradientUnits="userSpaceOnUse" x1="144.876" x2="160.825" xlink:href="#e" y1="289.94" y2="289.94"/><linearGradient id="z" gradientUnits="userSpaceOnUse" x1="163.049" x2="161.003" y1="172.463" y2="278.867"><stop offset="0" stop-color="#0162c1" stop-opacity="0"/><stop offset=".2351" stop-color="#0162c1" stop-opacity=".3534"/><stop offset=".9829" stop-color="#027bd0"/></linearGradient><linearGradient id="A" gradientUnits="userSpaceOnUse" x1="160.084" x2="159.578" xlink:href="#i" y1="83.4236" y2="137.62"/><linearGradient id="B" gradientUnits="userSpaceOnUse" x1="112.383" x2="103.928" xlink:href="#a" y1="108.433" y2="129.029"/><linearGradient id="C" gradientUnits="userSpaceOnUse" x1="107.178" x2="135.281" xlink:href="#c" y1="280.456" y2="280.456"/><linearGradient id="D" gradientUnits="userSpaceOnUse" x1="78.9527" x2="107.178" xlink:href="#e" y1="280.456" y2="280.456"/><linearGradient id="E" gradientUnits="userSpaceOnUse" x1="108.71" x2="104.054" y1="193.085" y2="448.382"><stop offset="0" stop-color="#0162c1" stop-opacity="0"/><stop offset=".2894" stop-color="#0061c1" stop-opacity=".7"/><stop offset=".9888" stop-color="#0158bb"/></linearGradient><linearGradient id="F" gradientUnits="userSpaceOnUse" x1="105.869" x2="105.032" xlink:href="#i" y1="27.2711" y2="116.886"/><linearGradient id="G" gradientUnits="userSpaceOnUse" x1="143.583" x2="139.658" xlink:href="#a" y1="183.869" y2="193.431"/><linearGradient id="H" gradientUnits="userSpaceOnUse" x1="141.167" x2="154.213" xlink:href="#c" y1="314.739" y2="314.739"/><linearGradient id="I" gradientUnits="userSpaceOnUse" x1="128.064" x2="141.167" xlink:href="#e" y1="314.739" y2="314.739"/><linearGradient id="J" gradientUnits="userSpaceOnUse" x1="142.638" x2="139.271" y1="223.94" y2="427.881"><stop offset="0" stop-color="#0162c1" stop-opacity="0"/><stop offset=".1512" stop-color="#0162c1" stop-opacity=".3534"/><stop offset=".363" stop-color="#0061c0"/></linearGradient><linearGradient id="K" gradientUnits="userSpaceOnUse" x1="140.619" x2="140.185" xlink:href="#i" y1="141.163" y2="187.632"/><linearGradient id="L" gradientUnits="userSpaceOnUse" x1="529.799" x2="487.66" xlink:href="#a" y1="266.737" y2="351.476"/><linearGradient id="M" gradientUnits="userSpaceOnUse" x1="283.728" x2="488.471" xlink:href="#e" y1="395.195" y2="395.195"/><linearGradient id="N" gradientUnits="userSpaceOnUse" x1="423.88" x2="367.79" xlink:href="#a" y1="151.412" y2="288.041"/><linearGradient id="O" gradientUnits="userSpaceOnUse" x1="389.347" x2="575.767" xlink:href="#c" y1="338.084" y2="338.084"/><linearGradient id="P" gradientUnits="userSpaceOnUse" x1="552.628" x2="526.062" xlink:href="#a" y1="330.484" y2="395.197"/><linearGradient id="Q" gradientUnits="userSpaceOnUse" x1="447.593" x2="536.272" xlink:href="#e" y1="405.224" y2="405.224"/><linearGradient id="R" gradientUnits="userSpaceOnUse" x1="523.21" x2="496.644" xlink:href="#a" y1="325.582" y2="390.294"/><linearGradient id="S" gradientUnits="userSpaceOnUse" x1="418.174" x2="506.854" xlink:href="#e" y1="402.771" y2="402.771"/><linearGradient id="T" gradientUnits="userSpaceOnUse" x1="493.682" x2="467.116" xlink:href="#a" y1="320.678" y2="385.39"/><linearGradient id="U" gradientUnits="userSpaceOnUse" x1="202.114" x2="477.327" xlink:href="#e" y1="338.085" y2="338.085"/><linearGradient id="V" gradientUnits="userSpaceOnUse" x1="477.327" x2="692.327" xlink:href="#c" y1="395.192" y2="395.192"/><linearGradient id="W" gradientUnits="userSpaceOnUse" x1="304.772" x2="365.541" y1="192.586" y2="192.586"><stop offset=".0355" stop-color="#c8d6ee"/><stop offset="1" stop-color="#d6e0f2"/></linearGradient><linearGradient id="X" gradientUnits="userSpaceOnUse" x1="262.015" x2="266.584" y1="207.879" y2="207.879"><stop offset="0" stop-color="#cdeffb"/><stop offset="1" stop-color="#89daf4"/></linearGradient><linearGradient id="Y"><stop offset="0" stop-color="#89daf4"/><stop offset="1" stop-color="#76cff0"/></linearGradient><linearGradient id="Z" gradientUnits="userSpaceOnUse" x1="460.362" x2="434.85" xlink:href="#Y" y1="145.142" y2="184.486"/><linearGradient id="aa" gradientUnits="userSpaceOnUse" x1="515.341" x2="489.829" xlink:href="#Y" y1="180.794" y2="220.138"/><linearGradient id="ab" gradientUnits="userSpaceOnUse" x1="233.553" x2="199.877" xlink:href="#a" y1="241.903" y2="323.934"/><linearGradient id="ac" gradientUnits="userSpaceOnUse" x1="202.727" x2="314.652" xlink:href="#c" y1="378.621" y2="378.621"/><linearGradient id="ad" gradientUnits="userSpaceOnUse" x1="90.3143" x2="202.727" xlink:href="#e" y1="378.621" y2="378.621"/><path d="m727.435 140.227-36.514 21.196-36.673-21.196 36.673-21.196z" fill="url(#b)"/><path d="m727.435 439.652v-299.423l-36.514 21.196v278.227z" fill="url(#d)"/><path d="m690.921 439.652v-278.227l-36.673-21.196v299.423z" fill="url(#f)"/><path d="m727.434 140.229h-73.186v299.423h73.186z" fill="url(#h)"/><path d="m656.376 19.6201 16.94 120.5249 18.036 10.411 17.916-10.412 14.868-120.5239z" fill="url(#j)" opacity=".5608"/><path d="m673.316 140.144 17.917-10.414 18.035 10.413-17.917 10.412z" fill="#f9fcff"/><path d="m705.97 78.3344h-1.34v-10.7856c0-6.7829-5.519-12.3021-12.304-12.3021-6.784 0-12.303 5.5192-12.303 12.3021v4.1352h6.088v-4.1352c0-3.4267 2.788-6.2153 6.215-6.2153 3.429 0 6.216 2.7886 6.216 6.2153v10.7856h-19.859c-1.12 0-2.029.9084-2.029 2.0293v23.2273c0 1.121.909 2.029 2.029 2.029h27.287c1.12 0 2.029-.908 2.029-2.029v-23.2273c0-1.1209-.909-2.0293-2.029-2.0293zm-11.615 14.2309v3.2878c0 1.1209-.908 2.0293-2.029 2.0293-1.122 0-2.029-.9084-2.029-2.0293v-3.2889c-.927-.6443-1.535-1.7123-1.535-2.9263 0-1.9692 1.595-3.5655 3.565-3.5655 1.968 0 3.565 1.5963 3.565 3.5655 0 1.214-.611 2.2831-1.537 2.9274z" fill="#a5ffff" opacity=".5608"/><path d="m773.247 169.593-20.632 11.977-20.722-11.977 20.722-11.977z" fill="url(#k)"/><path d="m773.247 439.651v-270.058l-20.633 11.977v258.081z" fill="url(#l)"/><path d="m752.614 439.651v-258.081l-20.721-11.977v270.058z" fill="url(#m)"/><path d="m773.247 169.593h-41.354v270.058h41.354z" fill="url(#n)"/><path d="m725.362 77.1498 13.008 92.5492 13.85 7.996 13.759-7.996 11.417-92.5492z" fill="url(#o)" opacity=".5608"/><path d="m738.37 169.699 13.76-7.996 13.849 7.996-13.759 7.996z" fill="#f9fcff"/><path d="m752.57 111.918c-6.641 0-12.024 5.383-12.024 12.024s5.383 12.025 12.024 12.025 12.025-5.384 12.025-12.025c.001-6.641-5.384-12.024-12.025-12.024zm2.792 16.465c-.578.623-1.388 1.037-2.299 1.19v.766c0 .432-.325.766-.749.766-.432 0-.775-.334-.775-.766v-.749c-.749-.108-1.415-.36-1.983-.766-.569-.406-.982-.875-1.227-1.406-.081-.163-.116-.325-.116-.479 0-.089.019-.189.045-.288.063-.189.206-.343.423-.469.144-.082.28-.117.397-.117.262 0 .54.18.829.541.505.801 1.344 1.244 2.416 1.244.54 0 1.082-.144 1.479-.432.423-.288.684-.713.684-1.227 0-.496-.234-.875-.693-1.135-.316-.18-.668-.29-1.218-.425l-.235-.062c-1.197-.226-2.108-.595-2.74-1.092-.749-.585-1.118-1.334-1.118-2.243 0-.839.334-1.587.902-2.174.539-.567 1.316-.946 2.154-1.09v-.676c0-.207.081-.398.235-.55.144-.145.325-.217.549-.217.207 0 .379.072.524.217.144.152.216.343.216.55v.676c1.162.18 2.118.749 2.651 1.622.063.107.099.226.099.343 0 .045-.01.099-.018.172-.046.161-.127.305-.244.423-.135.135-.36.216-.585.216-.217 0-.397-.054-.533-.162-.368-.324-.684-.55-.945-.667-.334-.145-.731-.216-1.189-.216-.541 0-1.047.145-1.407.406-.388.261-.604.649-.604 1.108 0 .515.281.847.785 1.1.423.207.928.343 1.831.531.963.253 1.748.568 2.324 1.037.695.56 1.046 1.298 1.046 2.209-.001.875-.334 1.678-.911 2.291z" fill="#a5ffff" opacity=".5608"/><path d="m752.032 229.31-16.951 9.838-17.022-9.838 17.022-9.84z" fill="url(#p)"/><path d="m752.032 439.65v-210.342l-16.951 9.839v200.503z" fill="url(#q)"/><path d="m735.081 439.65v-200.503l-17.022-9.839v210.342z" fill="url(#r)"/><path d="m752.032 229.309h-33.973v210.342h33.973z" fill="url(#s)"/><path d="m73.6727 297.741-36.5137 21.196-36.672184-21.196 36.672184-21.197z" fill="url(#t)"/><path d="m73.6726 439.653v-141.912l-36.5137 21.196v120.716z" fill="url(#u)"/><path d="m37.159 439.653v-120.716l-36.672184-21.196v141.912z" fill="url(#v)"/><path d="m176.705 140.229-15.88 9.218-15.949-9.218 15.949-9.219z" fill="url(#w)"/><path d="m176.704 439.653v-299.425l-15.88 9.218v290.207z" fill="url(#x)"/><path d="m160.824 439.653v-290.207l-15.948-9.218v299.425z" fill="url(#y)"/><path d="m176.705 140.228h-31.829v299.425h31.829z" fill="url(#z)"/><path d="m141.675 74.2489 9.248 65.7941 9.845 5.684 9.781-5.684 8.116-65.7941z" fill="url(#A)" opacity=".5608"/><path d="m150.923 140.043 9.781-5.684 9.845 5.684-9.781 5.683z" fill="#f9fcff"/><path d="m169.996 98.2609h-18.342c-.715 0-1.295.5801-1.295 1.2948v10.1473c0 .715.58 1.295 1.295 1.295h18.342c.715 0 1.295-.58 1.295-1.295v-10.1473c-.001-.7147-.58-1.2948-1.295-1.2948zm-2.008 11.0921c-.56 0-1.052-.265-1.373-.672-.322.407-.814.672-1.372.672-.972 0-1.758-.786-1.758-1.758 0-.97.786-1.758 1.758-1.758.558 0 1.05.267 1.372.673.322-.408.814-.673 1.373-.673.97 0 1.758.788 1.758 1.758 0 .972-.788 1.758-1.758 1.758zm1.758-5.207h-17.842v-3.144h17.842z" fill="#a5ffff" opacity=".5608"/><path d="m135.281 121.263-28.103 16.313-28.2251-16.313 28.2251-16.314z" fill="url(#B)"/><path d="m135.281 439.651v-318.39l-28.103 16.313v302.077z" fill="url(#C)"/><path d="m107.178 439.651v-302.077l-28.2248-16.313v318.39z" fill="url(#D)"/><path d="m135.281 121.262h-56.3281v318.39h56.3281z" fill="url(#E)"/><path d="m75.4293 12.0999 15.2906 108.7921 16.2801 9.399 16.173-9.4 13.421-108.7911z" fill="url(#F)" opacity=".5608"/><path d="m90.7198 120.892 16.1742-9.4 16.279 9.398-16.173 9.4z" fill="#f9fcff"/><path d="m117.337 84.9271-3.219-3.2184c-.681-.6806-1.642-.8961-2.51-.6661l-1.616-1.616c.94-1.3166 1.453-2.8828 1.453-4.5319 0-2.0925-.815-4.0576-2.293-5.5358s-3.443-2.2924-5.535-2.2924c-2.091 0-4.057.8142-5.5352 2.2924-3.0517 3.0517-3.0517 8.0188 0 11.0715 1.4792 1.4792 3.4442 2.2924 5.5352 2.2924 1.649 0 3.216-.5128 4.531-1.4523l1.617 1.616c-.229.868-.014 1.8293.667 2.5089l3.218 3.2174c.51.5096 1.177.7634 1.844.7634s1.334-.2548 1.843-.7634c1.018-1.0162 1.018-2.6674 0-3.6857zm-17.4124-6.3395c-2.0355-2.0355-2.0355-5.3493 0-7.3848.9864-.9862 2.2974-1.529 3.6924-1.529s2.704.5428 3.691 1.529c.988.9872 1.529 2.2976 1.529 3.6929 0 1.3943-.541 2.7047-1.529 3.6919-.987.9861-2.296 1.5289-3.691 1.5289s-2.706-.5428-3.6924-1.5289z" fill="#a5ffff" opacity=".5608"/><path d="m154.213 189.824-13.046 7.575-13.103-7.575 13.103-7.572z" fill="url(#G)"/><path d="m154.213 439.653v-249.829l-13.046 7.575v242.254z" fill="url(#H)"/><path d="m141.167 439.653v-242.254l-13.103-7.575v249.829z" fill="url(#I)"/><path d="m154.213 189.823h-26.149v249.829h26.149z" fill="url(#J)"/><path d="m124.834 133.296 7.929 56.413 8.442 4.874 8.387-4.874 6.959-56.413z" fill="url(#K)" opacity=".5608"/><path d="m132.762 189.71 8.388-4.874 8.441 4.874-8.386 4.873z" fill="#f9fcff"/><path d="m146.114 174.944v-2.998c0-.573 0-.851.294-.884.306-.033.546.369.806.487.282.129.627.15.906.001.38-.202.455-.68.455-1.069 0-.39-.075-.867-.455-1.069-.279-.15-.624-.128-.906.001-.26.118-.5.52-.806.487-.294-.033-.294-.31-.294-.885v-2.998h-2.998c-.574 0-.852 0-.885-.294-.033-.306.369-.546.487-.806.129-.282.151-.628.001-.906-.202-.38-.679-.455-1.069-.455-.388 0-.867.075-1.069.455-.149.278-.127.624.001.906.118.26.52.5.487.806-.032.294-.31.294-.884.294h-2.998v3.006c0 .568.001.843.294.875.304.034.546-.368.806-.486.282-.129.627-.151.906-.001.379.202.455.679.455 1.069 0 .388-.076.867-.455 1.069-.278.149-.624.127-.906-.001-.26-.119-.501-.52-.806-.487-.292.032-.294.307-.294.875v3.006h8.927z" fill="#f9fcff"/><path d="m637.053 231.658-27.536-15.899-.047 16.278 27.537 15.897z" fill="#a5ffff" opacity=".5608"/><path d="m609.327 196.5-.018 14.797 17.085 9.863.016-6.047v-8.749z" fill="#a5ffff" opacity=".5608"/><path d="m635.74 219.655-5.264-3.038-.017 6.047 5.262 3.039z" fill="#a5ffff" opacity=".5608"/><path d="m606.776 207.373-25.595-14.778-.051 17.664 25.646 14.807z" fill="#a5ffff" opacity=".5608"/><path d="m586.109 227.415-.023 8.106-.004 1.472 13.168 7.603.01-3.38.017-6.199z" fill="#a5ffff" opacity=".5608"/><path d="m539.152 439.653 153.176-88.919-203.856-118.337-204.744 118.339 153.842 88.917z" fill="url(#L)"/><path d="m437.569 439.653-153.841-88.917v88.917z" fill="url(#M)"/><path d="m575.767 236.517-186.42 108.218-187.233-108.216 187.233-108.217z" fill="url(#N)"/><path d="m575.767 439.653v-203.137l-186.42 108.218v94.919z" fill="url(#O)"/><path d="m624.567 370.793-88.294 51.257-88.681-51.256 88.681-51.255z" fill="url(#P)"/><path d="m536.273 439.653v-17.603l-88.681-51.255v68.858z" fill="url(#Q)"/><path d="m595.148 365.89-88.294 51.255-88.679-51.254 88.679-51.256z" fill="url(#R)"/><path d="m506.854 439.652v-22.507l-88.679-51.254v73.761z" fill="url(#S)"/><path d="m565.622 360.988-88.296 51.255-88.68-51.254 88.68-51.257z" fill="url(#T)"/><path d="m477.326 439.652v-27.41l-87.979-50.85v-16.659l-187.233-108.216v203.135z" fill="url(#U)"/><path d="m692.327 439.651v-88.918l-67.76 39.334v-19.275l-29.419 17.078v-21.98l-29.525 17.14v-22.043l-88.297 51.255v27.409z" fill="url(#V)"/><g fill="#a5ffff"><path d="m271.425 45.0432-56.217 32.4572c-1.482.8556-2.675 2.9222-2.67 4.6242l.245 86.1884c.005 1.703 1.205 2.386 2.687 1.532l56.217-32.457c1.481-.856 2.674-2.923 2.669-4.624l-.244-86.1887c-.004-1.703-1.206-2.3877-2.687-1.5321z" opacity=".5608"/><path d="m222.455 81.7808c-1.509.8712-2.734 2.9947-2.729 4.735.004 1.733 1.239 2.4364 2.747 1.5652 1.515-.8742 2.734-2.9947 2.73-4.7267-.006-1.7402-1.234-2.4478-2.748-1.5735z" opacity=".5608"/><path d="m265.461 58.3743-33.412 19.2911c-.833.4807-1.506 1.646-1.503 2.6032.002.9499.679 1.3363 1.512.8546l33.412-19.2912c.827-.4775 1.499-1.6418 1.496-2.5917-.001-.9582-.678-1.3436-1.505-.866z" opacity=".5608"/><path d="m265.483 66.1414-33.413 19.2911c-.833.4807-1.506 1.646-1.503 2.6032.004.9571.68 1.3435 1.513.8618l33.412-19.2911c.827-.4765 1.499-1.6419 1.496-2.5991-.001-.9581-.679-1.3435-1.505-.8659z" opacity=".5608"/><path d="m238.799 89.3338-6.707 3.8721c-.833.4806-1.506 1.645-1.503 2.6032.002.9499.68 1.3352 1.513.8546l6.706-3.8721c.833-.4807 1.505-1.6461 1.503-2.596-.002-.9571-.679-1.3435-1.512-.8618z" opacity=".5608"/><path d="m244.487 86.0516-.622.3595c-.833.4806-1.499 1.6418-1.496 2.599.002.9499.673 1.3394 1.506.8587l.622-.3584c.827-.4775 1.499-1.6419 1.496-2.5918-.003-.9592-.68-1.3445-1.506-.867z" opacity=".5608"/><path d="m222.533 109.292c-1.509.871-2.735 2.987-2.73 4.727s1.239 2.437 2.747 1.565c1.515-.874 2.734-2.986 2.73-4.726-.005-1.741-1.233-2.441-2.747-1.566z" opacity=".5608"/><path d="m265.539 85.8777-33.412 19.2913c-.833.481-1.507 1.646-1.503 2.603.002.957.679 1.344 1.512.862l33.412-19.2913c.827-.4765 1.499-1.6419 1.496-2.599-.001-.9582-.678-1.3436-1.505-.866z" opacity=".5608"/><path d="m265.562 93.6526-33.413 19.2914c-.834.48-1.506 1.646-1.503 2.603.003.95.68 1.335 1.513.855l33.412-19.2916c.827-.4775 1.499-1.6419 1.497-2.5918-.003-.9571-.681-1.3435-1.506-.866z" opacity=".5608"/><path d="m238.876 116.837-6.706 3.872c-.833.48-1.505 1.646-1.503 2.603s.68 1.344 1.512.863l6.707-3.872c.833-.482 1.506-1.646 1.503-2.603-.002-.959-.679-1.344-1.513-.863z" opacity=".5608"/><path d="m244.566 113.553-.623.359c-.833.481-1.499 1.642-1.496 2.599s.672 1.347 1.506.866l.622-.359c.826-.477 1.499-1.642 1.496-2.599-.002-.957-.68-1.344-1.505-.866z" opacity=".5608"/><path d="m222.611 136.802c-1.508.87-2.735 2.986-2.73 4.727.006 1.732 1.239 2.436 2.748 1.565 1.514-.874 2.734-2.995 2.729-4.727-.005-1.74-1.233-2.44-2.747-1.565z" opacity=".5608"/><path d="m265.617 113.389-33.413 19.291c-.833.481-1.506 1.646-1.503 2.603.002.95.68 1.336 1.513.855l33.412-19.291c.827-.478 1.499-1.642 1.496-2.592-.001-.958-.678-1.343-1.505-.866z" opacity=".5608"/><path d="m265.64 121.156-33.413 19.291c-.833.48-1.506 1.645-1.503 2.603.002.958.68 1.343 1.513.863l33.412-19.291c.826-.478 1.499-1.642 1.497-2.6-.003-.958-.68-1.343-1.506-.866z" opacity=".5608"/><path d="m238.955 144.348-6.706 3.872c-.834.481-1.506 1.646-1.503 2.603.003.958.68 1.337 1.512.855l6.707-3.872c.832-.481 1.506-1.638 1.503-2.595-.002-.958-.68-1.343-1.513-.863z" opacity=".5608"/><path d="m244.643 141.064-.622.359c-.833.481-1.499 1.642-1.496 2.6.003.957.672 1.339 1.506.858l.621-.359c.827-.476 1.499-1.635 1.497-2.592-.003-.957-.679-1.343-1.506-.866z" opacity=".5608"/></g><path d="m335.112 227.998 30.43-17.684-.011 3.517-30.43 17.683z" fill="#1a6cbe"/><path d="m312.372 171.909 2.841 2.946-9.797 22.296c-1.092 2.499-.785 6.066.847 9.801 1.632 3.729 4.246 6.841 7.172 8.529l21.676 12.515-.009 3.517-21.676-12.515c-3.901-2.252-7.529-6.567-9.705-11.541-2.177-4.975-2.605-9.928-1.145-13.252z" fill="#1a6cbe"/><path d="m312.372 171.912 30.429-17.684 2.84 2.946-30.428 17.684z" fill="#aae0f1"/><path d="m343.865 197.8c-.353-.204-.702-.431-1.045-.675-.022-.016-.044-.03-.065-.047-.335-.24-.664-.5-.988-.777-.021-.018-.042-.037-.064-.056-.326-.283-.647-.583-.96-.9-.001-.002-.003-.003-.005-.005-.317-.322-.624-.662-.922-1.014-.013-.016-.025-.028-.038-.044-.282-.336-.555-.689-.819-1.052-.045-.063-.089-.127-.134-.19-.181-.256-.354-.521-.525-.787-.112-.175-.225-.35-.332-.529-.208-.346-.411-.696-.603-1.058-.014-.025-.026-.051-.039-.076-.224-.431-.438-.871-.634-1.32-.199-.457-.379-.912-.538-1.362-.008-.021-.016-.044-.023-.066-.153-.437-.289-.87-.404-1.298-.006-.022-.012-.045-.018-.068-.114-.427-.21-.85-.284-1.265-.003-.02-.007-.037-.011-.057-.073-.415-.129-.823-.163-1.223-.002-.02-.003-.038-.004-.056-.034-.398-.048-.788-.043-1.166 0-.019.001-.038.001-.058.007-.378.034-.747.081-1.103.002-.016.005-.033.007-.049.047-.342.114-.673.198-.992.007-.029.014-.059.023-.088.091-.33.2-.648.332-.95l9.797-22.295-30.429 17.683-9.797 22.296c-.05.116-.098.236-.144.356-.058.156-.11.319-.159.483-.011.036-.019.074-.029.111-.008.029-.016.06-.023.089-.022.083-.046.164-.065.249-.032.142-.061.284-.086.43-.019.104-.032.207-.047.313-.002.017-.005.032-.007.05s-.006.036-.008.055c-.017.134-.031.271-.043.409-.011.132-.019.266-.025.402-.003.077-.004.157-.005.237 0 .021-.001.039-.001.06 0 .034-.002.067-.002.104 0 .131.001.265.005.399s.011.269.019.403c.005.086.013.173.021.259.001.019.003.037.004.056.002.031.004.062.007.095.012.136.028.274.046.413.017.139.037.281.06.423.015.097.033.194.05.293.003.018.007.036.01.056.005.028.009.057.014.086.028.147.058.295.09.444.033.151.068.301.106.454.023.093.049.188.074.281.006.022.011.044.017.067.011.036.019.073.029.111.043.153.087.308.135.463.046.151.096.305.148.459.029.088.061.177.092.265.008.022.016.043.023.065.014.04.027.08.042.12.053.147.109.294.167.442.056.146.114.291.174.436.051.121.103.242.156.365.009.022.019.045.029.067.065.147.131.292.198.438.073.155.149.309.224.463.06.118.121.236.183.354.013.024.024.05.038.074.016.031.031.063.048.093.131.245.267.49.407.728.047.082.1.156.149.237.108.179.219.353.331.527.084.13.161.267.247.393.091.136.186.264.281.397.044.062.087.125.132.187.032.045.063.091.095.136.116.156.235.311.354.462.107.136.215.269.325.402.015.019.031.036.047.055.011.014.022.027.035.041.08.095.158.189.239.281.109.124.22.247.332.367.113.123.23.243.346.362.001.002.003.004.005.006.002.003.004.005.006.007.116.117.233.234.351.347.124.119.251.237.377.351.077.068.153.135.231.201.021.018.043.037.063.056.031.026.061.054.093.08.129.108.258.214.389.318.128.101.257.198.387.295.04.029.08.056.119.084.021.016.043.031.065.046.066.048.132.097.2.143.126.086.251.169.379.25.125.08.252.157.379.233.029.018.058.033.087.051l21.676 12.514 30.43-17.683z" fill="url(#W)"/><path d="m412.269 3.4615-3.044-1.76928c.243-.13984.482-.25793.715-.35531l3.044 1.76825c-.234.09737-.473.21546-.715.35634z" fill="#155698"/><path d="m412.984 3.10591-3.044-1.76824c.204-.08598.405-.15435.601-.20718l3.043 1.76825c-.195.05283-.396.12223-.6.20717z" fill="#145494"/><path d="m413.584 2.89791-3.043-1.76825c.151-.04143.302-.07355.449-.09633l3.043 1.76824c-.146.02279-.295.05491-.449.09634z" fill="#145290"/><path d="m414.033 2.80156-3.043-1.76824c.129-.01968.257-.03211.38-.038325l3.043 1.768235c-.123.00622-.25.01865-.38.03833z" fill="#13508d"/><path d="m414.414 2.76448-3.043-1.768243c.115-.00518.227-.004145.337.00207l3.044 1.768243c-.11-.00621-.224-.00725-.338-.00207z" fill="#134e89"/><path d="m414.751 2.76727-3.044-1.768247c.106.006217.209.018647.309.036257l3.044 1.76824c-.101-.01761-.204-.029-.309-.03625z" fill="#124c85"/><path d="m415.059 2.80365-3.043-1.76825c.098.01657.194.03937.286.06526l3.043 1.76825c-.093-.0259-.187-.04869-.286-.06526z" fill="#124981"/><path d="m415.346 2.86834-3.044-1.76824c.093.02693.184.05905.271.0953l3.043 1.76824c-.087-.03729-.177-.06836-.27-.0953z" fill="#11477d"/><path d="m415.616 2.96343-3.044-1.76824c.088.03729.173.07872.256.12534l3.044 1.76824c-.082-.04661-.168-.08909-.256-.12534z" fill="#11457a"/><path d="m415.872 3.08892-3.044-1.76824c.01.00518.02.01036.028.01554l3.044 1.76928c-.009-.00622-.018-.0114-.028-.01658z" fill="#104376"/><path d="m265.058 200.672 152.633-88.122.036 12.908c.009 3.236-2.267 7.184-5.087 8.812l-142.424 82.229c-2.822 1.629-5.112.318-5.122-2.918z" fill="#f9fcff"/><path d="m265.058 200.672-3.043-1.768 152.632-88.123 3.044 1.769z" fill="#dad5d8"/><path d="m265.094 213.58-.036-12.908-3.043-1.768.036 12.908c.001.603.083 1.14.232 1.603.248.77.685 1.338 1.258 1.671l3.043 1.768c-.917-.534-1.485-1.665-1.49-3.274z" fill="url(#X)"/><path d="m412.269 3.46183c2.822-1.62841 5.112-.31802 5.12 2.91807l.302 106.1701-152.633 88.122-.301-106.1699c-.009-3.2361 2.266-7.1838 5.087-8.8122z" fill="#1a6cbe"/><path d="m412.858 1.33667c-.929-.538658-2.213-.463036-3.632.35531l-142.424 82.22912c-.272.1564-.536.3408-.796.5376-.043.0342-.088.0652-.132.1005-.246.1947-.485.405-.717.6298-.02.0197-.042.0342-.06.0528-.039.0373-.073.0787-.11.1171-.115.117-.228.2372-.34.3615-.035.0394-.073.0756-.108.115-.029.0342-.057.0704-.086.1046-.067.0798-.133.1606-.199.2424-.042.0528-.087.1036-.129.1564-.034.0446-.066.0912-.1.1368-.048.0642-.096.1284-.143.1937-.033.0435-.066.0859-.097.1305-.054.0766-.104.1554-.156.233-.033.0487-.066.0974-.1.1482-.013.0207-.027.0393-.04.0601-.09.1419-.178.2859-.263.4319-.006.0094-.012.0207-.018.0301-.017.03-.033.0601-.049.0901-.058.1025-.118.2051-.173.3097-.026.0487-.05.0995-.076.1492-.026.0507-.052.1015-.077.1523-.021.0435-.045.087-.067.1315-.058.1202-.112.2414-.166.3636-.009.0218-.021.0425-.029.0642-.002.0052-.005.0114-.007.0166-.065.1512-.129.3046-.188.4579-.011.029-.02.0569-.031.0859-.021.056-.04.1109-.06.1679-.027.0766-.057.1522-.082.2289-.02.0601-.036.1202-.054.1813-.022.0694-.044.1398-.065.2092-.012.0435-.028.086-.039.1295-.022.0777-.038.1554-.058.2341-.022.087-.045.174-.064.261-.006.0301-.016.0612-.022.0902-.013.0632-.021.1253-.032.1875-.026.1367-.051.2724-.07.4071-.005.0372-.014.0756-.019.1129-.004.0352-.003.0694-.007.1046-.036.3025-.06.6018-.058.894l.301 106.1707 3.043 1.768-.301-106.1705c-.001-.2921.023-.5925.058-.894.008-.0725.015-.1439.026-.2165.02-.1346.043-.2714.069-.4071.018-.0932.034-.1854.055-.2786.02-.087.043-.173.064-.26.031-.1212.063-.2424.098-.3646.02-.0705.042-.1409.064-.2114.043-.1357.088-.2724.137-.4081.019-.0559.039-.1119.06-.1688.07-.1875.145-.375.226-.5605.009-.0217.019-.0424.029-.0642.073-.1668.151-.3315.233-.4951.025-.0508.05-.1015.077-.1523.08-.1543.162-.3077.248-.4579.018-.03.033-.0611.05-.0901.102-.1771.21-.3512.322-.5231.032-.0497.065-.0984.098-.1471.083-.1233.167-.2445.254-.3646.047-.0653.094-.1295.142-.1937.075-.0995.152-.1969.23-.2932.065-.0818.131-.1626.199-.2424.064-.0746.129-.1481.195-.2206.11-.1243.223-.2445.339-.3616.057-.0569.113-.1139.17-.1698.232-.2248.472-.4361.717-.6299.044-.0341.088-.0663.133-.1004.259-.1969.523-.3802.794-.5377l142.424-82.22801c1.419-.81938 2.704-.895 3.632-.35531z" fill="#102465"/><path d="m341.132 162.037c1.975-1.14 3.58-.22 3.586 2.044.006 2.27-1.587 5.03-3.562 6.171-1.972 1.138-3.575.224-3.582-2.047-.007-2.263 1.587-5.029 3.558-6.168z" fill="#c1d0eb"/><path d="m410.76 11.9724.268 94.4346-139.364 80.463-.268-94.4357z" fill="#102465"/><path d="m366.835 114.051.493-3.665-2.137-1.157 2.949-2.197 1.307-3.829 1.325 2.31 2.951-1.209-2.13 3.619.513 3.085-2.636-.068zm11.092-6.403.493-3.664-2.144-1.153 2.948-2.197 1.308-3.8311 1.325 2.31 2.951-1.2088-2.123 3.6149.513 3.085-2.643-.065zm11.084-6.4.494-3.6651-2.144-1.1529 2.948-2.1971 1.309-3.8307 1.331 2.3069 2.945-1.2057-2.124 3.6162.512 3.0838-2.644-.0652zm11.085-6.3998.494-3.6649-2.137-1.1571 2.942-2.1929 1.315-3.8338 1.324 2.31 2.952-1.2089-2.13 3.6194.512 3.0838-2.637-.0684zm11.085-6.3996.5-3.6691-2.144-1.153 2.95-2.1971 1.307-3.8296 1.325 2.31 2.951-1.2089-2.123 3.6163.512 3.0838-2.643-.0653zm10.041-21.6074-59.24 34.2018c-1.435.828-2.596 2.838-2.59 4.487l.048 17.198c.004 1.642 1.173 2.308 2.609 1.478l59.239-34.2016c1.435-.8287 2.595-2.8383 2.591-4.4791l-.05-17.1987c-.004-1.6491-1.172-2.3141-2.607-1.4854z" fill="#f9fcff"/><path d="m369.448 103.203-1.307 3.83-2.948 2.197 2.136 1.157-.493 3.664 2.635-3.112 2.636.068-.513-3.084 2.13-3.619-2.951 1.209z" fill="#ffc15b"/><path d="m380.533 96.8015-1.308 3.8305-2.949 2.197 2.144 1.153-.494 3.664 2.628-3.108 2.644.066-.513-3.085 2.124-3.6153-2.951 1.2089z" fill="#ffc15b"/><path d="m391.618 90.4021-1.308 3.8307-2.949 2.1971 2.144 1.1529-.493 3.6642 2.627-3.1079 2.643.0642-.512-3.0838 2.124-3.6152-2.945 1.2047z" fill="#ffc15b"/><path d="m402.709 83.9987-1.315 3.8337-2.94 2.193 2.136 1.1571-.494 3.6639 2.635-3.1118 2.636.0684-.512-3.0838 2.13-3.6194-2.952 1.2089z" fill="#ffc15b"/><path d="m413.793 77.5992-1.307 3.8297-2.948 2.1971 2.143 1.1529-.499 3.6681 2.634-3.1118 2.642.0653-.511-3.0839 2.122-3.6162-2.95 1.2088z" fill="#dce6f6"/><path d="m338.631 68.8177-51.45 29.7049c-1.339.7738-2.42 2.6454-2.416 4.1864l.173 60.923c.004 1.539 1.092 2.167 2.432 1.393l51.45-29.705c1.339-.774 2.427-2.657 2.423-4.196l-.173-60.9234c-.004-1.5393-1.099-2.1556-2.439-1.3829z" fill="#f9fcff"/><path d="m292.955 154.003c-.517.298-.932.061-.934-.533-.003-.593.411-1.309.928-1.607l4.146-2.394c.517-.299.933-.063.935.532.001.594-.412 1.309-.929 1.608z" fill="#b5c7e8"/><path d="m300.24 149.797c-.516.298-.933.061-.934-.533-.001-.593.411-1.309.928-1.607l.376-.218c.517-.298.933-.061.935.533.002.593-.412 1.309-.929 1.607z" fill="#b5c7e8"/><path d="m292.942 149.194c-.517.298-.933.062-.935-.532-.002-.587.412-1.311.929-1.609l11.476-6.626c.517-.298.932-.053.934.533.002.593-.411 1.309-.928 1.608z" fill="#b5c7e8"/><path d="m307.716 140.663c-.517.299-.932.062-.934-.532-.001-.586.411-1.31.928-1.608l8.427-4.865c.517-.299.932-.054.934.532.002.594-.411 1.31-.928 1.608z" fill="#b5c7e8"/><path d="m319.442 133.895c-.517.298-.933.061-.935-.533-.001-.586.411-1.309.928-1.607l13.741-7.934c.517-.298.933-.054.935.532.002.594-.412 1.311-.928 1.608z" fill="#b5c7e8"/><path d="m292.928 144.384c-.517.299-.932.061-.934-.532-.002-.587.411-1.31.928-1.608l29.147-16.829c.517-.298.933-.054.935.533.002.593-.412 1.309-.928 1.607z" fill="#b5c7e8"/><path d="m292.9 134.776c-.517.298-.932.061-.934-.532-.002-.594.411-1.31.928-1.608l4.147-2.394c.517-.298.933-.061.934.532.001.594-.411 1.31-.928 1.608z" fill="#b5c7e8"/><path d="m300.185 130.569c-.517.299-.932.062-.934-.532-.001-.594.411-1.309.928-1.608l.376-.216c.517-.298.932-.062.934.532.003.594-.411 1.311-.928 1.609z" fill="#b5c7e8"/><path d="m292.887 129.966c-.517.298-.933.061-.935-.533-.002-.593.411-1.309.928-1.607l40.242-23.234c.517-.299.932-.061.935.532.001.594-.412 1.31-.929 1.608z" fill="#b5c7e8"/><path d="m292.873 125.158c-.517.298-.932.062-.934-.533-.001-.586.411-1.31.928-1.607l13.461-7.771c.517-.299.932-.054.934.532.002.594-.411 1.309-.928 1.608z" fill="#b5c7e8"/><path d="m310.027 115.253c-.517.299-.933.061-.934-.532-.001-.587.411-1.31.928-1.608l23.088-13.3296c.516-.2983.932-.0539.934.5326.001.593-.411 1.309-.928 1.608z" fill="#b5c7e8"/><path d="m292.845 115.549c-.517.298-.932.053-.934-.533-.001-.593.411-1.31.928-1.608l4.147-2.395c.516-.298.932-.061.934.533.001.586-.411 1.309-.928 1.608z" fill="#b5c7e8"/><path d="m300.132 111.342c-.517.298-.933.054-.935-.533-.001-.593.412-1.31.928-1.607l.376-.218c.517-.298.933-.061.935.533.001.586-.411 1.309-.928 1.607z" fill="#b5c7e8"/><path d="m292.833 110.739c-.517.299-.933.061-.934-.532-.001-.594.411-1.309.928-1.608l22.914-13.229c.517-.2983.933-.0611.935.5325.002.5935-.411 1.3093-.928 1.6076z" fill="#b5c7e8"/><path d="m319.186 95.5241c-.511.2952-.933.0611-.935-.5324-.001-.5936.419-1.3135.928-1.6077l13.888-8.0187c.517-.2984.934-.0612.935.5324s-.411 1.3104-.928 1.6077z" fill="#b5c7e8"/><path d="m292.819 105.93c-.516.299-.933.061-.934-.532-.001-.594.411-1.31.928-1.608l40.242-23.2336c.517-.2983.932-.0611.934.5325.002.5935-.411 1.3093-.928 1.6076z" fill="#b5c7e8"/><path d="m462.131 209.839-51.106-29.701-.056-20.146 51.105 29.699z" fill="#35abe2"/><path d="m486.931 166.883.081 28.59-24.881 14.366-.058-20.147c2.855-4.951 4.464-7.731 7.324-12.685z" fill="#008dd7"/><path d="m462.074 189.69-51.105-29.7c2.854-4.952 4.463-7.73 7.324-12.685l51.105 29.699c-2.861 4.955-4.47 7.734-7.324 12.686z" fill="#54bce9"/><path d="m469.398 177.005-51.106-29.7 17.534-10.123 51.105 29.7z" fill="url(#Z)"/><path d="m439.054 144.881-2.93-1.692-2.911 1.692 2.929 1.691z" fill="#a5ffff" opacity=".5608"/><path d="m443.882 147.668-2.923-1.687-2.912 1.691 2.924 1.688z" fill="#a5ffff" opacity=".5608"/><path d="m448.717 150.46-2.93-1.691-2.912 1.691 2.931 1.692z" fill="#a5ffff" opacity=".5608"/><path d="m453.543 153.246-2.929-1.691-2.91 1.691 2.93 1.692z" fill="#a5ffff" opacity=".5608"/><path d="m458.372 156.034-2.923-1.687-2.91 1.69 2.923 1.689z" fill="#a5ffff" opacity=".5608"/><path d="m463.206 158.825-2.929-1.69-2.91 1.69 2.93 1.692z" fill="#a5ffff" opacity=".5608"/><path d="m448.61 156.115-17.421-10.058-2.766 1.608 17.421 10.058z" fill="#a5ffff" opacity=".5608"/><path d="m452.055 158.012c-.806-.466-2.112-.466-2.914 0-.808.47-.803 1.226.003 1.692s2.113.466 2.921-.003c.801-.466.797-1.223-.01-1.689z" fill="#a5ffff" opacity=".5608"/><path d="m456.883 160.8c-.807-.466-2.112-.466-2.914 0-.808.47-.802 1.226.003 1.692.807.466 2.12.47 2.928 0 .801-.466.789-1.226-.017-1.692z" fill="#a5ffff" opacity=".5608"/><path d="m416.391 174.525c-.946-.546-1.716-.108-1.719.979l-.032.896c-.003 1.081.761 2.405 1.707 2.952l39.032 22.535c.946.546 1.715.107 1.718-.974l.032-.896c.003-1.087-.762-2.411-1.706-2.957z" fill="#008dd7"/><path d="m518.804 242.879-51.106-29.7-.056-20.147 51.106 29.7z" fill="#35abe2"/><path d="m543.604 199.922.082 28.591-24.882 14.365-.057-20.147c2.854-4.952 4.463-7.73 7.324-12.685z" fill="#008dd7"/><path d="m518.748 222.73-51.106-29.699c2.854-4.952 4.463-7.73 7.324-12.686l51.106 29.7c-2.862 4.956-4.471 7.734-7.324 12.685z" fill="#54bce9"/><path d="m526.072 210.046-51.107-29.7 17.534-10.123 51.105 29.699z" fill="url(#aa)"/><path d="m495.727 177.921-2.93-1.692-2.911 1.692 2.93 1.691z" fill="#a5ffff" opacity=".5608"/><path d="m500.555 180.709-2.923-1.688-2.912 1.692 2.924 1.687z" fill="#a5ffff" opacity=".5608"/><path d="m505.39 183.501-2.93-1.692-2.912 1.692 2.93 1.691z" fill="#a5ffff" opacity=".5608"/><path d="m510.218 186.287-2.931-1.692-2.91 1.692 2.93 1.692z" fill="#a5ffff" opacity=".5608"/><path d="m515.045 189.076-2.923-1.689-2.911 1.693 2.924 1.686z" fill="#a5ffff" opacity=".5608"/><path d="m519.879 191.867-2.929-1.692-2.91 1.692 2.93 1.691z" fill="#a5ffff" opacity=".5608"/><path d="m505.284 189.155-17.422-10.057-2.766 1.608 17.421 10.057z" fill="#a5ffff" opacity=".5608"/><path d="m508.728 191.052c-.806-.465-2.112-.465-2.914 0-.808.47-.804 1.226.003 1.692.806.466 2.113.466 2.921-.004.801-.467.797-1.222-.01-1.688z" fill="#a5ffff" opacity=".5608"/><path d="m513.556 193.841c-.807-.466-2.112-.466-2.914 0-.808.469-.803 1.225.002 1.691.807.465 2.12.47 2.928 0 .802-.466.791-1.226-.016-1.691z" fill="#a5ffff" opacity=".5608"/><path d="m473.064 207.565c-.946-.545-1.716-.108-1.719.979l-.032.896c-.003 1.082.761 2.405 1.707 2.952l39.032 22.536c.946.545 1.714.108 1.718-.974l.032-.896c.003-1.087-.762-2.41-1.706-2.956z" fill="#008dd7"/><path d="m418.05 203.748c-6.231 3.598-6.264 9.417-.073 13.014 6.219 3.613 16.266 3.613 22.498.016 6.23-3.597 6.291-9.432.072-13.047-6.19-3.597-16.266-3.582-22.497.017z" fill="#004299" opacity=".09"/><path d="m435.019 214.455s5.637-3.66 5.788-4.551c.151-.889-1.213-1.851-2.161-1.816s-4.937.367-4.937.367l-1.278 1.448c0 .002-2.284 5.456 2.588 4.552z" fill="#102465"/><path d="m422.692 209.848s5.637-3.661 5.788-4.551-1.214-1.851-2.162-1.816c-.948.034-4.936.367-4.936.367l-1.278 1.449c0 .001-2.284 5.453 2.588 4.551z" fill="#102465"/><path d="m436.872 163.235.164 46.362s-2.573 1.562-5.539-.12c0 0-4.212-40.05-4.301-41.001-.082-.878-1.777 36.564-1.777 36.564s-3.252 1.865-5.726-.669l-1.884-44.355z" fill="#102465"/><path d="m417.711 147.772c.296-.142.365-.175.661-.318.257-4.209 1.203-20.36 1.203-20.36-1.576.565-2.704 1.19-3.653 5.406-.449 1.994-.893 5.235-1.226 8.485-.268 2.612.837 5.218 2.966 6.753.017.012.034.023.049.034z" fill="#102465"/><path d="m434.962 134.9 10.834 3.697-5.418 13.939-10.643-3.77z" fill="#f9fcff"/><path d="m432.253 128.594s2.373.522 5.444 3.033l-.825 31.609s-3.992 2.92-12.15.785c-6.645-1.739-8.392-4.537-8.392-4.537s-.608-15.161.017-21.573c.625-6.413 3.228-10.816 3.228-10.816 1.449-.44 4.648-.256 4.648-.256z" fill="#102465"/><path d="m424.895 126.664-.184-6.177s-1.555-.119-1.287-1.82c.267-1.702 1.86-.584 2.139-.082 0 0 .36-5.861 3.463-6.425 3.105-.563 4.394-.114 4.474 1.399.08 1.511.179 6.796 0 8.76-.18 1.964.003 2.985-2.833 2.907l-.247 2.056s-1.285 1.199-5.259.229z" fill="#ffc6a0"/><path d="m432.253 128.593c-.02-1.208-.213-1.865-3.019-2.184s-5.084-1.071-5.37 0 .28 1.737 3.088 1.975 5.301.209 5.301.209z" fill="#fff"/><path d="m437.697 131.628c1.212.481 1.87 15.678 1.87 15.678l3.655-3.337 2.836 1.796s-4.018 12.958-8.328 9.926-6.079-26.462-.033-24.063z" fill="#102465"/><path d="m443.536 141.996c.308-1.184-.417-2.593.283-2.802.699-.208 1.314.845 1.314.845s.308-2.936.88-2.962 1.053 1.237 1.053 1.237.835.324 1.102.894c.269.569.568 2.004.168 3.647s-2.277 2.91-2.277 2.91l-2.836-1.796c-.001-.001.004-.79.313-1.973z" fill="#ffc6a0"/><path d="m430.17 118.046c-.299-.331-.652-.536-1.05-.446-.558.127-.679.77-.537 1.243.06.197 1.189 1.446 1.265 1.299-.746 1.461-1.756 2.786-2.968 3.891-.258.235-.535.465-.867.569-.333.104-.737.053-.967-.209-2.36-2.698-3.586-6.232-2.809-9.733.138-.62.343-1.25.773-1.718.43-.469 1.133-.734 1.72-.494 1.03-2.866 7.434-1.943 8.646.328 1.451 2.718-1.449 3.45-2.013 5.533-.146.537-.173 1.1-.198 1.656-.15-.462-.497-1.365-.995-1.919z" fill="#f9fcff"/><path d="m614.265 238.6c-2.84-.618-5.948.142-8.182 2.001-2.236 1.859-3.549 4.776-3.459 7.681.038 1.241.302 2.565-.265 3.67-.862 1.683-3.315 2.172-3.951 3.951-.661 1.849 1.049 3.646 1.475 5.561.443 1.988-.53 3.976-1.211 5.895-.682 1.92-.982 4.326.465 5.759 1.438 1.424 3.944 1.189 5.44 2.553.679.619 1.072 1.507 1.767 2.109 1.475 1.277 3.886.812 5.322-.509 1.436-1.32 2.12-3.251 2.692-5.116.572-1.866 1.114-3.812 2.365-5.309 1.058-1.267 2.612-2.203 3.152-3.763.776-2.24-.875-4.526-1.351-6.848-.507-2.471.342-4.986.869-7.452.483-2.271.489-4.85-.365-7.054-.704-1.818-2.993-2.743-4.763-3.129z" fill="#102465"/><path d="m620.862 334.557c6.069 3.505 6.102 9.173.071 12.677-6.058 3.52-15.845 3.52-21.914.017s-6.128-9.189-.071-12.709c6.029-3.505 15.843-3.489 21.914.015z" fill="#004299" opacity=".09"/><path d="m623.919 287.713s1.14 2.769 1.254 3.858c.114 1.087-.768.831-.768.831s-.743.527-1.303 1.268c-.559.742-2.372-.374-2.372-.374l.144-4.905z" fill="#ffc6a0"/><path d="m616.683 256.821c2.718.663 3.026 1.973 3.807 4.576.782 2.604 1.868 14.825 1.868 14.825l1.561 11.493-3.045.676-3.432-10.942z" fill="#ffc6a0"/><path d="m602.857 336.296c-.873 1.282-1.729 2.605-.371 4.669 1.357 2.066 3.265 4.139 5.801 3.595 1.282-.277-.793-4.875-2.7-7.497-1.91-2.624-2.73-.767-2.73-.767z" fill="#102465"/><path d="m601.665 309.946s.615 24.202.757 27.115c.105 2.148 3.009 4.712 4.251 4.456 1.669-.344-1.09-4.456-1.09-4.456s1.966-18.85 2.385-22.201c.418-3.35.619-5.744.619-5.744z" fill="#ffc6a0"/><path d="m612.75 333.052c-.873 1.283-1.728 2.606-.37 4.67 1.357 2.066 3.265 4.138 5.8 3.593 1.283-.275-.793-4.873-2.7-7.495-1.909-2.624-2.73-.768-2.73-.768z" fill="#102465"/><path d="m612.177 306.704s-.004 24.203.139 27.116c.106 2.148 3.01 4.712 4.253 4.456 1.668-.344-1.091-4.456-1.091-4.456s3.296-22.343 3.715-25.693c.417-3.35-.094-2.252-.094-2.252z" fill="#ffc6a0"/><path d="m604.194 279.164c-4.132 6.361-4.954 12.753-4.023 19.601.931 6.847 1.494 11.181 1.494 11.181s8.926 3.674 17.528-1.82c0 0 1.993-10.69 2.159-17.934.165-7.244-2.807-11.062-2.807-11.062z" fill="#102465"/><path d="m606.065 256.902s-3.848.923-4.416 1.571c0 0-.356 8.27 1.174 13.011s1.37 7.681 1.37 7.681 3.292 5.32 14.351-.034c0 0 1.011-6.21 1.676-9.194s1.754-3.137.204-6.632c-1.548-3.492-3.742-6.484-3.742-6.484-.993-.418-3.208-.418-3.208-.418z" fill="#102465"/><path d="m607.384 255.459-.135-6.406s-1.513-.126-1.241-1.783c.274-1.656 1.816-.554 2.087-.065 0 0 .391-5.706 3.419-6.233 3.029-.526 5.956.145 6.023 1.619.066 1.473.008 5.985-.853 8.615-.62 1.89-.904 2.603-3.667 2.504l.166 3.484s-1.394 1.008-5.256.033z" fill="#ffc6a0"/><path d="m613.051 254.736s.53-.004.735.113c.206.117 1.304 1.234 1.321 2.454.017 1.219-.488 2.612-.488 2.612l-2.489-2.278-1.599 3.032s-.981-.2-2.323-1.227c-1.342-1.025-2.142-2.542-2.142-2.542.441-1.098.74-1.749.74-1.749.104-.252.583-.367.583-.367s2.651 2.441 4.743 2.575c0 .001.749-.342.919-2.623z" fill="#fff"/><path d="m601.65 258.474c-1.818 1.321-5.264 18.211-5.264 20.624s4.744 13.305 4.744 13.305l3.146-1.671-2.611-12.493s2.325-9.825 3.003-13.099c.679-3.277-3.018-6.666-3.018-6.666z" fill="#ffc6a0"/><path d="m604.276 290.732s1.859 2.497 2.084 2.998-1.103 0-1.103 0 1.187 3.312.809 3.672c-.378.358-1.986-.36-1.986-.36s-1.065-.321-1.463-.878c-.398-.558-1.487-3.762-1.487-3.762z" fill="#ffc6a0"/><path d="m607.014 253.933c1.007-.337 1.799-1.245 2-2.288.162-.844-.013-1.816.523-2.486.764-.955 2.422-.626 3.276-1.501.888-.912.421-2.614 1.325-3.512.551-.548 1.413-.589 2.19-.596-.16 1.563-.007 3.158.452 4.661.136.447.421.972.886.94.515-.035.694-.692.738-1.206.084-.988.168-1.978.252-2.966.112-1.315.172-2.796-.711-3.778-.675-.752-1.739-1.007-2.742-1.128-2.67-.323-5.521.073-7.724 1.618-2.203 1.546-3.595 4.384-2.955 6.999.204.835.599 1.629.649 2.486.024.418-.064.867-.273 1.231-.175.307-.723.599-.639.977.192.86 2.183.74 2.753.549z" fill="#102465"/><path d="m278.267 176.408c-.678 1.228-1.05 2.705-1.262 4.274-.429 3.168-.857 6.401-.277 9.545.581 3.144 2.351 6.241 5.247 7.595 2.2 1.027 4.738.938 7.16.772 1.86-.129 3.842-.34 5.292-1.515 3.951-3.202 2.1-10.779.572-14.813-.962-2.54-2.385-4.962-4.458-6.715-2.074-1.754-4.858-2.778-7.542-2.356-2.365.373-3.824 1.569-4.732 3.213z" fill="#f9fcff"/><path d="m275.669 268.99c-6.07 3.505-6.102 9.173-.072 12.677 6.057 3.52 15.844 3.52 21.914.017 6.069-3.505 6.129-9.189.072-12.71-6.03-3.504-15.844-3.489-21.914.016z" fill="#004299" opacity=".09"/><path d="m272.612 222.145s-1.141 2.77-1.254 3.858c-.114 1.087.767.831.767.831s.743.528 1.303 1.268c.559.742 2.372-.374 2.372-.374l-.143-4.904z" fill="#ffc6a0"/><path d="m280.883 191.255c-2.718.663-3.026 1.972-3.807 4.576-.781 2.603-2.904 14.824-2.904 14.824l-1.561 11.493 3.046.676 3.432-10.942z" fill="#ffc6a0"/><path d="m279.353 204.702.495-13.447c-2.718.663-3.026 1.972-3.807 4.576-.349 1.163-1.646 4.35-1.992 7.404.89.434 4.748 1.29 5.304 1.467z" fill="#102465"/><path d="m293.673 270.728c.874 1.283 1.729 2.605.372 4.671-1.358 2.064-3.266 4.137-5.801 3.593-1.282-.275.794-4.874 2.701-7.497 1.908-2.622 2.728-.767 2.728-.767z" fill="#102465"/><path d="m294.866 244.378s-.616 24.203-.759 27.116c-.105 2.149-3.009 4.713-4.252 4.456-1.669-.344 1.09-4.456 1.09-4.456s-1.966-18.85-2.385-22.201c-.418-3.349-.618-5.744-.618-5.744z" fill="#ffc6a0"/><path d="m283.779 267.485c.874 1.283 1.729 2.605.372 4.67-1.358 2.065-3.266 4.138-5.801 3.594-1.282-.276.794-4.874 2.701-7.497 1.908-2.623 2.728-.767 2.728-.767z" fill="#102465"/><path d="m284.354 241.137s.002 24.203-.139 27.115c-.106 2.149-3.01 4.714-4.253 4.457-1.669-.344 1.09-4.457 1.09-4.457s-3.296-22.341-3.714-25.693c-.418-3.349.094-2.252.094-2.252z" fill="#ffc6a0"/><path d="m292.336 213.598c4.132 6.36 4.956 12.753 4.023 19.6-.931 6.848-1.494 11.181-1.494 11.181s-8.927 3.674-17.528-1.82c0 0-1.993-10.69-2.158-17.934-.167-7.244 2.806-11.062 2.806-11.062z" fill="#102465"/><path d="m290.465 191.337s3.848.922 4.416 1.57c0 0 .355 8.269-1.174 13.012-1.53 4.74-1.371 7.681-1.371 7.681s-3.292 5.319-14.351-.036c0 0-1.012-6.209-1.677-9.193-.665-2.983-1.754-3.138-.204-6.632 1.549-3.493 3.743-6.483 3.743-6.483.992-.418 3.207-.418 3.207-.418z" fill="#102465"/><path d="m286.475 182.512c-1.368-.803-2.27-2.258-2.988-3.781-1.197 1.353-2.659 2.503-4.297 3.479.133 1.235.34 2.46.658 3.431.62 1.891.905 2.603 3.667 2.506l-.166 3.482s1.394 1.008 5.257.034l.542-1.771.134-6.406s1.453-.129 1.244-1.706c-1.143 1.057-2.53 1.627-4.051.732z" fill="#ffc6a0"/><path d="m283.48 189.171s-.53-.004-.735.112c-.205.117-1.303 1.235-1.321 2.454s.487 2.611.487 2.611l2.49-2.276 1.598 3.031s.982-.2 2.324-1.227c1.341-1.024 2.142-2.541 2.142-2.541-.441-1.098-.739-1.751-.739-1.751-.105-.25-.584-.365-.584-.365s-2.651 2.44-4.744 2.574c0 .002-.749-.341-.918-2.622z" fill="#fff"/><path d="m292.564 202.77c.944 4.167 2.301 9.902 2.301 9.902l-2.611 12.493 3.145 1.67s4.745-10.892 4.745-13.305c0-1.343-1.07-7.177-2.331-12.311-1.729.582-3.483 1.081-5.249 1.551z" fill="#ffc6a0"/><path d="m292.514 207.058c1.755-.476 5.593-.904 7.365-1.311-1.167-5.544-3.899-12.042-4.998-12.841 0 0-3.698 3.39-3.02 6.666.328 1.581.004 4.692.653 7.486z" fill="#102465"/><path d="m292.255 225.164s-1.859 2.496-2.084 2.998c-.225.501 1.103 0 1.103 0s-1.187 3.311-.809 3.671c.378.359 1.986-.36 1.986-.36s1.065-.32 1.463-.878 1.486-3.762 1.486-3.762z" fill="#ffc6a0"/><path d="m650.262 348.034c6.07 3.504 6.102 9.173.072 12.678-6.057 3.519-15.845 3.519-21.914.015-6.07-3.503-6.129-9.189-.071-12.709 6.03-3.504 15.843-3.489 21.913.016z" fill="#004299" opacity=".09"/><path d="m634.47 358.862s-5.616-3.647-5.766-4.533c-.149-.886 1.209-1.844 2.153-1.809.945.035 4.916.366 4.916.366l1.274 1.444c.001-.001 2.276 5.43-2.577 4.532z" fill="#102465"/><path d="m646.75 354.271s-5.616-3.647-5.765-4.533c-.151-.885 1.209-1.843 2.153-1.808.943.035 4.916.365 4.916.365l1.273 1.444c0-.001 2.275 5.431-2.577 4.532z" fill="#102465"/><path d="m632.626 307.843-.164 46.18s2.564 1.556 5.517-.12c0 0 5.228-39.893 5.316-40.84.082-.874.739 36.42.739 36.42s3.238 1.857 5.703-.666l2.909-44.181z" fill="#102465"/><path d="m637.227 273.337s-2.364.521-5.422 3.022l.821 31.485s3.976 2.909 12.102.783c6.62-1.732 8.359-4.52 8.359-4.52s.605-15.101-.018-21.487c-.257-2.641-.85-4.94-1.459-6.728-.916-2.692-3.51-4.45-6.349-4.302l-.036.002z" fill="#fdf7fb"/><path d="m644.556 271.415.183-6.153s1.549-.117 1.281-1.813c-.266-1.695-1.852-.581-2.131-.082 0 0-.358-5.838-3.45-6.399s-4.376-.113-4.456 1.393c-.079 1.506-.178 6.77 0 8.726.179 1.957-.003 2.974 2.823 2.896l.245 2.048s1.28 1.195 5.24.228z" fill="#ffc6a0"/><path d="m637.227 273.338c.021-1.203.213-1.857 3.007-2.175 2.795-.317 5.065-1.066 5.349 0 .284 1.067-.28 1.73-3.077 1.966-2.796.239-5.279.209-5.279.209z" fill="#fdf7fb"/><path d="m631.804 276.36c-1.208.479-3.52 18.208-3.52 18.208l-7.135-4.628-1.652 2.909s7.979 10.499 12.273 7.479c4.294-3.021 6.056-26.357.034-23.968z" fill="#ffc6a0"/><path d="m635.486 288.809c.65-6.824-.252-13.81-3.682-12.449-.624.246-2.515 5.383-3.258 10.01 1.944 1.018 4.907 1.627 6.94 2.439z" fill="#fdf7fb"/><path d="m619.95 288.354c-.825-.896-.849-2.475-1.562-2.33-.712.145-.759 1.359-.759 1.359s-1.646-2.438-2.161-2.192c-.515.245-.346 1.579-.346 1.579s-.581.677-.55 1.304c.031.625.439 2.027 1.561 3.283 1.121 1.258 3.365 1.492 3.365 1.492l1.652-2.909c-.001.001-.375-.689-1.2-1.586z" fill="#ffc6a0"/><path d="m639.301 262.833c.297-.33.649-.536 1.045-.444.556.126.676.765.535 1.236-.06.196-1.185 1.441-1.259 1.295.742 1.455 1.748 2.775 2.956 3.875.256.235.531.464.863.568.33.104.733.053.962-.208 2.407-2.749 4.081-7.285 2.012-10.716-.73-1.211-1.955-2.114-3.326-2.454-1.23-.306-2.549-.175-3.745-.591-.779-.27-1.499-.769-2.322-.812-.824-.041-1.76.718-1.455 1.485-.698-.596-1.905-.188-2.293.645-.39.833-.091 1.862.513 2.554 1.318 1.513 3.731 1.629 4.325 3.829.145.537.172 1.096.197 1.649.149-.461.495-1.361.992-1.911z" fill="#102465"/><path d="m495.333 69.8948-51.203-29.5619c-1.346-.7769-2.445-.1626-2.45 1.3964l-.223 78.4917c-.004 1.545 1.09 3.439 2.435 4.216l51.203 29.562c1.345.777 2.446.15 2.45-1.397l.222-78.4911c.005-1.559-1.088-3.4392-2.434-4.2161z" fill="#a5ffff" opacity=".5608"/><path d="m453.217 58.6314-.019 6.5996-6.082-3.5116.019-6.5996zm7.812 4.5103-6.094-3.5179-.019 6.5996 6.094 3.5178zm15.466 60.4453-6.094-3.518-.018 6.6 6.093 3.518zm7.802 4.504-6.082-3.511-.02 6.599 6.083 3.512zm7.812 4.51-6.082-3.511-.019 6.599 6.083 3.512zm-23.25-71.3923-21.707-12.5321-.006 2.1049 21.707 12.5321zm23.414 13.5172-9.859-5.6922-.006 2.1049 9.859 5.6922z" fill="#a5ffff" opacity=".5608"/><path d="m476.641 72.1548-.018 6.5996-6.094-3.5178.018-6.5996zm-23.449-4.9504-6.082-3.5117-.02 6.5996 6.083 3.5117zm15.601 17.5954-6.094-3.5178-.02 6.5996 6.094 3.5178zm-.024 8.573-6.094-3.5179-.02 6.5996 6.094 3.5178zm-7.789-13.0842-6.094-3.5179-.019 6.5996 6.094 3.5178zm-.024 8.5739-6.094-3.5178-.019 6.5996 6.095 3.5178zm-.025 8.574-6.094-3.5178-.018 6.5993 6.094 3.518zm7.813 4.5105-6.094-3.5181-.02 6.5991 6.094 3.518zm7.8 4.504-6.094-3.518-.019 6.599 6.094 3.518zm.025-8.5743-6.094-3.5178-.019 6.5991 6.094 3.518zm.024-8.5739-6.094-3.5179-.019 6.5996 6.094 3.5179zm.025-8.574-6.094-3.5178-.019 6.5996 6.094 3.5178zm-7.802-4.504-6.094-3.5178-.019 6.5995 6.094 3.5179zm-7.812-4.5102-6.094-3.5178-.019 6.5995 6.094 3.5179zm-7.836 4.0638-6.082-3.5117-.019 6.5996 6.082 3.5116zm-.024 8.5739-6.083-3.5116-.02 6.5996 6.083 3.5116zm-.024 8.574-6.083-3.5116-.02 6.5996 6.083 3.5116zm-.025 8.5737-6.082-3.5114-.019 6.5994 6.082 3.512zm7.812 4.512-6.094-3.518-.018 6.599 6.094 3.518zm7.813 4.51-6.094-3.518-.02 6.599 6.094 3.518zm7.8 4.503-6.094-3.518-.018 6.599 6.094 3.518zm-7.679-47.3742-6.094-3.5178-.02 6.5996 6.095 3.5178zm-15.771 42.4112-6.082-3.512-.019 6.6 6.082 3.511zm7.813 4.51-6.094-3.518-.019 6.6 6.094 3.518zm7.812 4.51-6.094-3.518-.02 6.6 6.095 3.518zm15.748-42.4232-6.083-3.5116-.02 6.5996 6.083 3.5116zm-.098 34.2962-6.081-3.512-.02 6.6 6.083 3.511zm.024-8.574-6.082-3.5119-.019 6.5999 6.082 3.511zm.025-8.5742-6.083-3.5116-.019 6.5995 6.082 3.5113zm.024-8.574-6.082-3.5116-.02 6.5996 6.083 3.5116zm-.098 34.2962-6.081-3.512-.02 6.6 6.083 3.511zm7.934-38.3599-6.081-3.5117-.02 6.5996 6.083 3.5116zm-.096 34.2959-6.083-3.512-.018 6.6 6.082 3.512zm.024-8.574-6.083-3.512-.019 6.6 6.083 3.512zm.024-8.574-6.083-3.5116-.019 6.5996 6.083 3.512zm.024-8.574-6.082-3.5116-.019 6.5996 6.083 3.5116zm-.097 34.296-6.083-3.512-.018 6.6 6.081 3.511zm-10.909 13.545-23.415-13.518-.005 1.793 23.415 13.518z" fill="#1773d0" opacity=".5608"/><path d="m525.611 46.3975-40.315-23.2751c-2.115-1.2213-3.826-.2455-3.833 2.1764l-.07 24.7305c-.007 2.4302 1.695 5.3752 3.809 6.5965l40.314 23.2752c2.115 1.2213 3.827.2455 3.833-2.1837l.003-.9126.017-5.6175.052-18.2004c.005-2.423-1.696-5.369-3.81-6.5893z" fill="#a5ffff" opacity=".5608"/><path d="m529.368 71.1861-47.957-27.6881-.016 5.6186 47.956 27.687z" fill="#a5ffff" opacity=".5608"/><path d="m515.363 48.9094c-.937-2.368-2.64-4.5899-4.613-5.7284-2.982-1.7226-5.409-.3397-5.419 3.088-.009 3.4184 2.402 7.594 5.384 9.3156 1.973 1.1395 3.683.8878 4.631-.3915.478-.6464.777-1.5414.78-2.6923.003-1.1602-.291-2.397-.763-3.5914z" fill="#f9fcff" opacity=".5608"/><path d="m520.002 48.5223c-1.981-1.1436-3.691-.8929-4.639.3874-.478.6474-.777 1.5414-.78 2.7006-.003 1.1508.29 2.3877.762 3.582.937 2.368 2.64 4.59 4.62 5.7336 2.975 1.7175 5.402.3346 5.413-3.0838.009-3.4277-2.401-7.6023-5.376-9.3198z" fill="#f9fcff" opacity=".5608"/><path d="m553.314 112.039-45.013-25.9881c-.748-.432-1.358-.084-1.36.7831l-.082 29.008c-.003.866.604 1.916 1.352 2.348l45.013 25.988c.754.435 1.363.087 1.366-.779l.082-29.008c.002-.867-.605-1.917-1.358-2.352z" fill="#a5ffff" opacity=".5608"/><path d="m551.652 113.75c-.135-.079-.274-.115-.397-.097l-19.372 2.967c-.344.049-.735-.054-1.124-.279-.39-.224-.778-.572-1.118-1.016l-19.298-25.2928c-.124-.1616-.26-.2828-.395-.3615-.241-.1399-.478-.1378-.618.0352-.22.2693-.122.8505.221 1.3l20.084 26.3171c.34.448.728.798 1.118 1.023.389.225.78.324 1.125.272l20.167-3.077c.338-.056.445-.519.228-1.041-.139-.334-.376-.609-.621-.75z" fill="#f9fcff" opacity=".5608"/><path d="m467.694 248.703-55.692-32.154c-2.384-1.377-4.338-.278-4.346 2.477l-.095 33.483c-.007 2.754 1.934 6.103 4.318 7.478l2.563 1.481-.014 4.947 2.602-3.453 50.542 29.179c2.396 1.384 4.338.278 4.344-2.477l.095-33.483c.009-2.754-1.92-6.095-4.317-7.478z" fill="#a5ffff" opacity=".09890813657"/><path d="m462.225 254.034-44.825-25.879c-.807-.466-1.45-.085-1.452.842l-.001.251c-.003.928.636 2.049 1.444 2.515l44.824 25.879c.807.467 1.463.093 1.466-.836l.001-.249c.001-.927-.65-2.056-1.457-2.523z" fill="#f9fcff"/><path d="m434.022 246.763-16.646-9.611c-.807-.466-1.45-.085-1.452.843l-.001.265c-.003.913.636 2.034 1.444 2.499l16.645 9.611c.807.466 1.463.092 1.466-.82v-.265c.002-.928-.649-2.057-1.456-2.522z" fill="#f9fcff"/><path d="m444.709 252.933-4.485-2.59c-.871-.502-1.566-.092-1.568.909-.004.987.686 2.195 1.557 2.699l4.486 2.59c.858.495 1.565.092 1.568-.894.003-1.002-.699-2.218-1.558-2.714z" fill="#f9fcff"/><path d="m421.95 248.819-4.486-2.59c-.871-.502-1.565-.108-1.568.894s.687 2.211 1.558 2.714l4.485 2.589c.859.496 1.567.093 1.57-.909.002-1.001-.701-2.202-1.559-2.698z" fill="#f9fcff"/><path d="m403.709 324.679c4.165 1.954 4.187 5.113.048 7.066-4.157 1.962-10.874 1.962-15.04.008-4.165-1.952-4.206-5.12-.048-7.082 4.137-1.954 10.873-1.944 15.04.008z" fill="#004299" opacity=".09"/><path d="m412.227 274.532s.826.733 1.005.85c.18.117 1.839.433 2.181.746.343.312.262.939.262.939s.717.739.795.957c.077.219-.682.795-.717.906-.035.109-.19.81-.592.975-.403.165-1.438.711-1.637.711-.198-.001-2.713-2.344-4.217-4.552-1.506-2.207 2.92-1.532 2.92-1.532z" fill="#ffc6a0"/><path d="m378.37 312.011s-.652-.045-.97.062c-.317.105-1.843 2.093-1.835 2.433.007.341 4.121 4.07 5.506 5.085s2.139-.009 1.848-.486c-.291-.476-1.239-2.232-1.49-3.042s-.405-1.455-.907-2.148c-.504-.692-2.152-1.904-2.152-1.904z" fill="#102465"/><path d="m398.55 276.786s2.009 15.929 1.586 18.402c-.422 2.475-18.516 19.577-18.707 19.497-.189-.082-3.763.407-4.556-2.914l14.115-17.084-.625-15.699z" fill="#102465"/><path d="m379.868 278.87-.136 2.653c-.079 2.016.338 4.013 1.221 5.827 2.675 5.502 8.449 17.361 8.74 17.887.38.685 5.562 19.574 5.562 19.574s3.036.657 5.427-1.818c0 0-4.219-19.253-4.471-22.474-.253-3.221-5.848-21.531-5.848-21.531z" fill="#102465"/><path d="m395.85 324.88s3.756-2.373 5.783-2.842c2.58-.599 4.45.29 4.704.678.254.386-.787 1.71-2.105 2.385-1.319.675-6.67 2.441-7.167 2.497-.499.056-1.166-1.047-1.215-2.718z" fill="#102465"/><path d="m397.275 246.582c1.974.541 2.874 1.898 4.211 5.15 1.336 3.251 1.952 9.336 1.952 9.336l8.788 13.465s-.102 2.671-1.882 2.901c0 0-9.358-9.278-10.71-11.549-1.354-2.272-1.703-8.253-1.703-8.253z" fill="#ffc6a0"/><path d="m399.364 262.454c1.684-.895 3.321-1.878 4.896-2.955-.713-2.152-1.896-5.636-2.773-7.769-1.336-3.252-2.237-4.608-4.211-5.151l.657 11.05c-.001.001.619 2.487 1.431 4.825z" fill="#92dbfb"/><path d="m397.275 246.581c-1.337-.464-4.329-.41-4.329-.41l-7.559 1.342s-3.274 1.065-6.232 3.297l.239 9.451v18.526c0 .359.173.692.481.877 1.176.705 4.501 2.263 9.82 1.451.014-.002.027-.004.042-.006.446-.068.902-.149 1.376-.253 1.568-.345 2.854-.813 3.905-1.321 0-.001.001-.001.001-.001.353-.171.669-.347.97-.524.075-.044.148-.087.221-.131.572-.354 1.047-.705 1.436-1.037.049-.042.096-.082.143-.124.367-.326.652-.625.863-.875.027-.032.053-.062.078-.093.196-.24.321-.422.385-.526.014-.022.018-.027.026-.042.021-.035.035-.06.035-.06s.017-1.611.06-3.919c.086-4.643.277-12.162.654-15.409.693-5.977-2.615-10.213-2.615-10.213z" fill="#92dbfb"/><path d="m394.477 230.781s-4.634-2.383-7.944.171-1.906 6.974-.859 9.646c1.049 2.67 1.887 1.748 1.887 1.748l8.66-3.102s1.147-.316 1.123-3.88c-.023-3.565-2.867-4.583-2.867-4.583z" fill="#102465"/><path d="m396.807 234.521c-.009-.635-.58-1.132-1.467-1.45-.493 1.426-1.48 2.675-2.854 3.375-1.557.795-3.087.684-4.412-.011-.354 1.194-.457 2.221-.457 2.221-.244-.478-1.689-1.581-2.002-.002-.312 1.578 1.136 1.745 1.136 1.745l-.056 5.773.466 1.714c3.672 1.051 5.039.128 5.039.128l-.065-2.973c2.645.178 4.11-.517 4.35-2.343.24-1.827.341-6.763.322-8.177z" fill="#ffc6a0"/><path d="m392.148 245.654s.509.012.703.13c.193.119 1.21 1.224 1.19 2.393-.022 1.17-.546 2.488-.546 2.488l-2.317-2.259-1.625 2.857s-.934-.223-2.188-1.246c-1.255-1.023-1.976-2.502-1.976-2.502.456-1.038.763-1.655.763-1.655.107-.237.569-.333.569-.333s2.466 2.421 4.468 2.613c-.001 0 .727-.306.959-2.486z" fill="#fff"/><path d="m369.263 280.469s-.231 1.081-.245 1.294c-.013.213.529 1.814.425 2.267-.104.452-.69.689-.69.689s-.29.989-.442 1.164c-.152.174-1.028-.203-1.141-.18s-.798.235-1.141-.035c-.343-.269-1.326-.901-1.425-1.075-.098-.174.705-3.517 1.886-5.911 1.183-2.397 2.773 1.787 2.773 1.787z" fill="#ffc6a0"/><path d="m366.044 279.778s5.418-14.208 6.686-16.852c1.268-2.646 4.658-10.928 6.426-12.116 1.769-1.188 2.497 7.525 2.497 7.525s-4.696 9.153-6.168 11.158c-1.471 2.006-6.221 10.976-6.221 10.976s-1.203 1.727-3.22-.691z" fill="#ffc6a0"/><path d="m377.466 266.196c1.885-3.38 4.186-7.861 4.186-7.861s-.727-8.713-2.496-7.525c-1.377.926-4.508 6.919-6.427 10.78 1.456 1.661 3.06 3.173 4.737 4.606z" fill="#92dbfb"/><path d="m443.233 270.903-12.712-7.34c-3.986-2.3-7.237-.461-7.251 4.132l-.018 6.435c-.014 4.521 3.117 9.986 7.024 12.345-.286 1.207-1.02 2.479-2.83 2.23 0 0 4.857 2.716 6.828.108l8.894 5.135c3.998 2.309 7.238.447 7.251-4.132l.018-6.435c.013-4.594-3.206-10.17-7.204-12.478z" fill="#a5ffff" opacity=".5608"/><path d="m430.25 272.964c-.947-.547-1.719-.108-1.722.981s.763 2.418 1.711 2.965c.949.547 1.72.107 1.723-.981.003-1.09-.763-2.418-1.712-2.965zm6.6 3.81c-.948-.547-1.72-.108-1.723.982s.764 2.417 1.712 2.964c.948.548 1.719.107 1.722-.981.003-1.089-.762-2.417-1.711-2.965zm6.6 3.81c-.948-.547-1.72-.108-1.723.981-.003 1.091.763 2.418 1.711 2.965s1.72.107 1.723-.981c.003-1.09-.764-2.417-1.711-2.965z" fill="#f9fcff"/><path d="m314.652 317.586-111.925 64.974-112.413-64.973 112.413-64.973z" fill="url(#ab)"/><path d="m314.652 439.654v-122.066l-111.925 64.973v57.093z" fill="url(#ac)"/><path d="m202.726 439.653v-57.093l-112.412-64.972v122.065z" fill="url(#ad)"/><path d="m257.027 306.97-72.179 41.947c-2.226 1.293-5.845 1.293-8.085 0l-53.474-30.874c-1.127-.651-1.691-1.504-1.688-2.358l-.006 2.12c-.002.852.561 1.707 1.688 2.357l53.474 30.874c2.24 1.293 5.86 1.293 8.085 0l72.18-41.946c1.105-.642 1.659-1.484 1.661-2.326l.007-2.118c-.004.841-.557 1.682-1.663 2.324z" fill="#a8bee3"/><path d="m257.001 302.288c2.24 1.293 2.252 3.39.026 4.683l-72.179 41.947c-2.226 1.293-5.846 1.293-8.085 0l-53.474-30.874c-2.241-1.293-2.252-3.39-.026-4.683l72.18-41.946c2.225-1.294 5.845-1.294 8.085 0z" fill="#f9fcff"/><path d="m157.556 332.736c.611.353.614.924.007 1.276-.606.352-1.592.352-2.204 0l-6.637-3.833c-.611-.352-.615-.924-.008-1.276.606-.352 1.593-.352 2.204 0z" fill="#a8bee3"/><path d="m251.503 304.629-69.248 40.243-52.001-30.023 69.248-40.242z" fill="#0e1f57"/><path d="m126.638 292.396c-.418-.24-.424-.633-.004-.877.414-.241 1.092-.238 1.51.002l3.373 1.947c.421.244.423.634.008.876-.419.243-1.093.243-1.515 0zm5.923 3.42c-.418-.241-.42-.631-.001-.876.414-.24 1.089-.24 1.506 0l.31.18c.417.241.423.633.009.875-.418.243-1.097.241-1.514 0zm-2.544-5.384c-.418-.24-.42-.635-.005-.877.414-.241 1.092-.238 1.51.003l18.633 10.757c.418.242.421.631.005.874-.414.24-1.092.242-1.51.002zm21.429 12.374c-.418-.241-.415-.634-.001-.876.414-.241 1.089-.24 1.506 0l11.291 6.519c.422.244.424.634.009.876-.415.24-1.092.243-1.514 0zm11.755 10.7 5.2-3.022 8.956 5.171-5.2 3.022zm-29.802-25.039c-.418-.24-.424-.633-.009-.874.415-.242 1.097-.242 1.514 0l32.72 18.89c.422.244.42.636.005.877-.414.242-1.088.242-1.51-.002zm36.183 21.331 5.2-3.022 8.956 5.17-5.2 3.023zm-32.805-23.294c-.418-.241-.424-.634-.008-.875.418-.244 1.097-.242 1.514 0l8.729 5.039c.422.244.424.634.006.878-.415.241-1.089.241-1.511-.002zm4.31-3.384 26.644-15.484 46.279 26.719-26.644 15.484zm81.153 10.392-53.081-30.646c-.806-.466-2.112-.464-2.909 0l-48.191 28.005c-.799.464-.794 1.218.013 1.684l53.08 30.645c.807.466 2.109.466 2.906.003l48.191-28.006c.799-.463.798-1.219-.009-1.685z" fill="#f9fcff"/><path d="m168.947 289.229 9.42-5.474 3.074 7.23zm45.063 5.125-46.279-26.72-26.644 15.485 46.279 26.719z" fill="#ffc15b"/><path d="m183.74 311.947-8.957-5.17-5.201 3.022 8.958 5.171z" fill="#017fd3"/><path d="m177.357 315.655-8.956-5.171-5.2 3.022 8.956 5.171z" fill="#017fd3"/><path d="m178.367 283.755-9.42 5.475 12.494 1.756z" fill="#f9fcff"/><path d="m167.625 306.482-32.72-18.89c-.417-.241-1.099-.241-1.514 0-.415.24-.41.633.009.874l32.72 18.892c.422.243 1.096.243 1.51.002.415-.241.417-.633-.005-.878z" fill="#b5c7e8"/><path d="m150.155 300.315-18.633-10.757c-.418-.242-1.096-.244-1.511-.003-.414.241-.412.636.006.877l18.633 10.759c.417.24 1.096.238 1.51-.002.416-.242.413-.631-.005-.874z" fill="#b5c7e8"/><path d="m147.013 290.67-8.73-5.04c-.417-.241-1.096-.243-1.514 0-.414.241-.409.633.008.876l8.731 5.039c.421.244 1.095.244 1.51.002.418-.243.416-.634-.005-.877z" fill="#dce6f6"/><path d="m164.242 308.449-11.291-6.519c-.418-.241-1.092-.241-1.506 0-.415.24-.417.634.001.875l11.291 6.519c.421.243 1.099.24 1.514 0 .416-.242.414-.632-.009-.875z" fill="#b5c7e8"/><path d="m131.517 293.469-3.373-1.948c-.417-.24-1.096-.242-1.51-.002-.42.244-.413.636.004.878l3.373 1.947c.421.244 1.096.244 1.514 0 .416-.241.412-.632-.008-.875z" fill="#dce6f6"/><path d="m134.376 295.119-.31-.179c-.418-.241-1.092-.241-1.506 0-.419.243-.417.633.001.875l.309.179c.418.241 1.096.243 1.515 0 .414-.241.408-.634-.009-.875z" fill="#dce6f6"/><path d="m145.021 237.485c-4.041-2.332-4.062-6.112-.048-8.445 4.015-2.333 10.549-2.337 14.588-.004 4.04 2.333 4.062 6.121.048 8.454s-10.547 2.329-14.588-.005zm19.002 10.971c-4.041-2.332-4.069-6.116-.054-8.449 4.014-2.334 10.554-2.334 14.596 0 4.041 2.333 4.055 6.117.041 8.449-4.016 2.333-10.543 2.333-14.583 0zm18.994 10.967c-4.041-2.332-4.069-6.117-.054-8.449 4.014-2.334 10.554-2.334 14.595-.001 4.04 2.333 4.062 6.121.047 8.454-4.014 2.333-10.547 2.329-14.588-.004zm28.703-5.671-56.997-32.908c-1.435-.829-3.755-.829-5.182 0l-18.699 10.867c-1.419.826-1.412 2.17.023 2.998l56.997 32.908c1.434.829 3.749.826 5.168 0l18.7-10.867c1.427-.829 1.426-2.169-.01-2.998z" fill="#f9fcff"/><path d="m167.891 244.776 4.35-2.528 1.417 3.338zm10.673-4.768c-4.041-2.334-10.581-2.334-14.596 0-4.015 2.332-3.987 6.116.054 8.449s10.567 2.333 14.582 0 4.001-6.118-.04-8.449z" fill="#017fd3"/><path d="m151.704 232.575 5.001.703-4.349 2.528-1.23-2.896-1.885 1.097-1.336-.771 4.349-2.528 1.337.772zm7.858-3.54c-4.041-2.333-10.574-2.329-14.588.004s-3.993 6.113.048 8.446c4.041 2.334 10.574 2.338 14.588.004 4.014-2.333 3.993-6.121-.048-8.454z" fill="#ffc15b"/><path d="m191.473 255.537 1.885-1.096 1.343.774-4.35 2.528-1.343-.775 1.886-1.097-5.002-.702 4.35-2.528zm6.086-4.564c-4.041-2.333-10.581-2.333-14.595.001-4.015 2.332-3.987 6.116.054 8.449s10.574 2.337 14.588.004c4.014-2.332 3.992-6.121-.047-8.454z" fill="#ffc15b"/><path d="m172.241 242.247-4.35 2.527 5.767.809z" fill="#f9fcff"/><path d="m194.701 255.215-1.343-.775-1.885 1.096-1.229-2.894-4.351 2.528 5.002.702-1.886 1.097 1.343.775z" fill="#f9fcff"/><path d="m156.706 233.277-5.002-.703 1.887-1.096-1.337-.771-4.349 2.527 1.336.773 1.885-1.097 1.23 2.895z" fill="#f9fcff"/><g fill="#a5ffff" opacity=".5"><path d="m543.885 179.611c.72 0 1.303-.583 1.303-1.303s-.583-1.303-1.303-1.303-1.303.583-1.303 1.303.583 1.303 1.303 1.303z" opacity=".5"/><path d="m562.727 166.885c1.43 0 2.589-1.159 2.589-2.59 0-1.43-1.159-2.589-2.589-2.589s-2.59 1.159-2.59 2.589c0 1.431 1.16 2.59 2.59 2.59z" opacity=".5"/><path d="m622.582 179.095c.792 0 1.434-.642 1.434-1.433 0-.792-.642-1.434-1.434-1.434s-1.434.642-1.434 1.434c0 .791.642 1.433 1.434 1.433z" opacity=".5"/><path d="m580.85 263.754c.713 0 1.29-.578 1.29-1.29s-.577-1.29-1.29-1.29c-.712 0-1.289.578-1.289 1.29s.577 1.29 1.289 1.29z" opacity=".5"/><path d="m719.201 109.52c.631 0 1.142-.512 1.142-1.143s-.511-1.142-1.142-1.142-1.143.511-1.143 1.142.512 1.143 1.143 1.143z" opacity=".5"/><path d="m656.79 80.4685c1.079 0 1.954-.8752 1.954-1.9547 0-1.0796-.875-1.9547-1.954-1.9547-1.08 0-1.955.8751-1.955 1.9547 0 1.0795.875 1.9547 1.955 1.9547z" opacity=".5"/><path d="m676.868 119.909c.726 0 1.315-.588 1.315-1.314s-.589-1.315-1.315-1.315-1.314.589-1.314 1.315.588 1.314 1.314 1.314z" opacity=".5"/><path d="m712.804 61.6636c.563 0 1.02-.4568 1.02-1.0203 0-.5636-.457-1.0204-1.02-1.0204-.564 0-1.02.4568-1.02 1.0204 0 .5635.456 1.0203 1.02 1.0203z" opacity=".5"/><path d="m741.851 152.539c.722 0 1.306-.585 1.306-1.306 0-.722-.584-1.307-1.306-1.307-.721 0-1.306.585-1.306 1.307 0 .721.585 1.306 1.306 1.306z" opacity=".5"/><path d="m758.649 148.015c.715 0 1.295-.581 1.295-1.296 0-.716-.58-1.296-1.295-1.296-.716 0-1.296.58-1.296 1.296 0 .715.58 1.296 1.296 1.296z" opacity=".5"/><path d="m767.442 100.095c.809 0 1.465-.6559 1.465-1.4649 0-.8089-.656-1.4647-1.465-1.4647s-1.464.6558-1.464 1.4647c0 .809.655 1.4649 1.464 1.4649z" opacity=".5"/><path d="m772.765 160.517c.466 0 .845-.378.845-.845s-.379-.845-.845-.845c-.467 0-.846.378-.846.845s.379.845.846.845z" opacity=".5"/><path d="m98.8509 99.7907c.825 0 1.4941-.6688 1.4941-1.4937 0-.825-.6691-1.4938-1.4941-1.4938s-1.4937.6688-1.4937 1.4938c0 .8249.6687 1.4937 1.4937 1.4937z" opacity=".5"/><path d="m83.1327 99.4205c.3953 0 .7158-.3205.7158-.7158s-.3205-.7158-.7158-.7158c-.3954 0-.7158.3205-.7158.7158s.3204.7158.7158.7158z" opacity=".5"/><path d="m99.9312 48.6866c.8478 0 1.5338-.6869 1.5338-1.5342s-.686-1.5341-1.5338-1.5341c-.8472 0-1.5341.6868-1.5341 1.5341s.6869 1.5342 1.5341 1.5342z" opacity=".5"/><path d="m118.884 68.6365c.433 0 .784-.351.784-.7841s-.351-.7842-.784-.7842-.784.3511-.784.7842.351.7841.784.7841z" opacity=".5"/><path d="m130.581 91.8309c.485 0 .878-.3932.878-.8784 0-.4851-.393-.8784-.878-.8784s-.878.3933-.878.8784c0 .4852.393.8784.878.8784z" opacity=".5"/><path d="m155.381 123.411c.645 0 1.168-.524 1.168-1.169s-.523-1.168-1.168-1.168c-.646 0-1.169.523-1.169 1.168s.523 1.169 1.169 1.169z" opacity=".5"/><path d="m177.436 129.634c.428 0 .776-.348.776-.776 0-.429-.348-.776-.776-.776-.429 0-.776.347-.776.776 0 .428.347.776.776.776z" opacity=".5"/><path d="m143.686 134.905c.444 0 .803-.359.803-.803s-.359-.804-.803-.804-.804.36-.804.804.36.803.804.803z" opacity=".5"/><path d="m138.43 155.726c.685 0 1.24-.555 1.24-1.24 0-.684-.555-1.24-1.24-1.24s-1.24.556-1.24 1.24c0 .685.555 1.24 1.24 1.24z" opacity=".5"/><path d="m71.077 193.094c.3393 0 .6143-.275.6143-.614 0-.34-.275-.615-.6143-.615-.3392 0-.6142.275-.6142.615 0 .339.275.614.6142.614z" opacity=".5"/><path d="m195.331 202.124c.89 0 1.61-.721 1.61-1.61s-.72-1.61-1.61-1.61c-.889 0-1.609.721-1.609 1.61s.72 1.61 1.609 1.61z" opacity=".5"/><path d="m248.632 164.543c.826 0 1.496-.67 1.496-1.496 0-.827-.67-1.497-1.496-1.497-.827 0-1.497.67-1.497 1.497 0 .826.67 1.496 1.497 1.496z" opacity=".5"/><path d="m287.259 38.9145c.728 0 1.317-.5895 1.317-1.3166 0-.7272-.589-1.3167-1.317-1.3167-.727 0-1.316.5895-1.316 1.3167 0 .7271.589 1.3166 1.316 1.3166z" opacity=".5"/><path d="m293.488 50.2243c.849 0 1.537-.6878 1.537-1.5362 0-.8485-.688-1.5362-1.537-1.5362-.848 0-1.536.6877-1.536 1.5362 0 .8484.688 1.5362 1.536 1.5362z" opacity=".5"/><path d="m429.067 52.5786c.65 0 1.177-.5268 1.177-1.1767s-.527-1.1768-1.177-1.1768-1.176.5269-1.176 1.1768.526 1.1767 1.176 1.1767z" opacity=".5"/><path d="m462.647 35.036c.894 0 1.619-.7249 1.619-1.6191s-.725-1.619-1.619-1.619-1.619.7248-1.619 1.619.725 1.6191 1.619 1.6191z" opacity=".5"/><path d="m511.414 30.5574c.38 0 .687-.3075.687-.6868s-.307-.6868-.687-.6868c-.379 0-.687.3075-.687.6868s.308.6868.687.6868z" opacity=".5"/><path d="m505.518 75.9814c.631 0 1.143-.5115 1.143-1.1425 0-.6311-.512-1.1426-1.143-1.1426s-1.142.5115-1.142 1.1426c0 .631.511 1.1425 1.142 1.1425z" opacity=".5"/><path d="m503.839 139.086c.757 0 1.371-.614 1.371-1.371s-.614-1.37-1.371-1.37-1.37.613-1.37 1.37.613 1.371 1.37 1.371z" opacity=".5"/><path d="m507.58 145.982c.508 0 .92-.412.92-.92s-.412-.92-.92-.92-.92.412-.92.92.412.92.92.92z" opacity=".5"/><path d="m425.883 94.9139c.529 0 .957-.4285.957-.9571s-.428-.9572-.957-.9572c-.528 0-.957.4286-.957.9572s.429.9571.957.9571z" opacity=".5"/><path d="m255.787 168.499c.446 0 .808-.362.808-.808s-.362-.808-.808-.808c-.447 0-.808.362-.808.808s.361.808.808.808z" opacity=".5"/><path d="m188.943 233.911c.662 0 1.198-.536 1.198-1.197 0-.662-.536-1.198-1.198-1.198-.661 0-1.197.536-1.197 1.198 0 .661.536 1.197 1.197 1.197z" opacity=".5"/><path d="m116.938 277.147c.708 0 1.281-.574 1.281-1.281s-.573-1.28-1.281-1.28c-.707 0-1.28.573-1.28 1.28s.573 1.281 1.28 1.281z" opacity=".5"/><path d="m120.056 260.79c.648 0 1.173-.525 1.173-1.173 0-.647-.525-1.172-1.173-1.172-.647 0-1.172.525-1.172 1.172 0 .648.525 1.173 1.172 1.173z" opacity=".5"/><path d="m51.5971 275.333c.7197 0 1.3032-.583 1.3032-1.303s-.5835-1.303-1.3032-1.303-1.3031.583-1.3031 1.303.5834 1.303 1.3031 1.303z" opacity=".5"/><path d="m29.9378 261.288c1.341 0 2.4281-1.087 2.4281-2.428s-1.0871-2.428-2.4281-2.428-2.4281 1.087-2.4281 2.428 1.0871 2.428 2.4281 2.428z" opacity=".5"/><path d="m22.7345 274.937c.2506 0 .4537-.203.4537-.454 0-.25-.2031-.453-.4537-.453s-.4537.203-.4537.453c0 .251.2031.454.4537.454z" opacity=".5"/><path d="m345.368 398.93c1.032 0 1.868-.836 1.868-1.867 0-1.032-.836-1.868-1.868-1.868-1.031 0-1.868.836-1.868 1.868 0 1.031.837 1.867 1.868 1.867z" opacity=".5"/><path d="m179.721 423.11c.583 0 1.056-.473 1.056-1.056 0-.584-.473-1.057-1.056-1.057-.584 0-1.057.473-1.057 1.057 0 .583.473 1.056 1.057 1.056z" opacity=".5"/><path d="m228.273 431.456c.515 0 .933-.418.933-.933 0-.516-.418-.934-.933-.934-.516 0-.934.418-.934.934 0 .515.418.933.934.933z" opacity=".5"/><path d="m49.3594 422.866c.516 0 .9344-.419.9344-.935s-.4184-.934-.9344-.934-.9344.418-.9344.934.4184.935.9344.935z" opacity=".5"/><path d="m23.1209 401.389c.4639 0 .8401-.376.8401-.84s-.3762-.84-.8401-.84c-.464 0-.8401.376-.8401.84s.3761.84.8401.84z" opacity=".5"/><path d="m23.1209 418.827c.4639 0 .8401-.376.8401-.84s-.3762-.84-.8401-.84c-.464 0-.8401.376-.8401.84s.3761.84.8401.84z" opacity=".5"/><path d="m706.109 407.321c.579 0 1.048-.47 1.048-1.049s-.469-1.048-1.048-1.048-1.049.469-1.049 1.048.47 1.049 1.049 1.049z" opacity=".5"/><path d="m702.819 429.047c1.238 0 2.242-1.004 2.242-2.242s-1.004-2.241-2.242-2.241-2.241 1.003-2.241 2.241 1.003 2.242 2.241 2.242z" opacity=".5"/><path d="m736.456 414.329c.576 0 1.043-.467 1.043-1.043s-.467-1.043-1.043-1.043-1.043.467-1.043 1.043.467 1.043 1.043 1.043z" opacity=".5"/></g></svg>